<svg xmlns="http://www.w3.org/2000/svg" xmlns:xlink="http://www.w3.org/1999/xlink" width="37" height="29" viewBox="0 0 37 29">
  <defs>
    <clipPath id="clip-path">
      <path id="Combined_Shape" data-name="Combined Shape" d="M12.429,34.945V7.017L3.536,15.842a2.084,2.084,0,0,1-2.931,0,2.047,2.047,0,0,1,0-2.906L13.035.6a2.07,2.07,0,0,1,.517-.374l.012-.006.029-.014L13.616.2l.018-.008L13.67.172l.006,0a2.092,2.092,0,0,1,1.65,0h0l.042.019.01,0,.032.015.019.009.023.012.026.013.016.008.031.017.011.006L15.57.3l.008,0,.036.022.006,0,.037.024.005,0L15.7.377l.007,0,.033.024.01.007.029.022.014.011.024.019.022.018L15.85.5l.035.031h0q.045.04.088.083L28.393,12.935a2.043,2.043,0,0,1,0,2.906,2.082,2.082,0,0,1-2.929,0L16.571,7.017V34.945a2.071,2.071,0,0,1-4.143,0Z" fill="#fff"/>
    </clipPath>
  </defs>
  <g id="arrow-up" transform="translate(37) rotate(90)">
    <g id="Group_35" data-name="Group 35">
      <path id="Combined_Shape-2" data-name="Combined Shape" d="M12.429,34.945V7.017L3.536,15.842a2.084,2.084,0,0,1-2.931,0,2.047,2.047,0,0,1,0-2.906L13.035.6a2.07,2.07,0,0,1,.517-.374l.012-.006.029-.014L13.616.2l.018-.008L13.67.172l.006,0a2.092,2.092,0,0,1,1.65,0h0l.042.019.01,0,.032.015.019.009.023.012.026.013.016.008.031.017.011.006L15.57.3l.008,0,.036.022.006,0,.037.024.005,0L15.7.377l.007,0,.033.024.01.007.029.022.014.011.024.019.022.018L15.85.5l.035.031h0q.045.04.088.083L28.393,12.935a2.043,2.043,0,0,1,0,2.906,2.082,2.082,0,0,1-2.929,0L16.571,7.017V34.945a2.071,2.071,0,0,1-4.143,0Z" fill="#fff"/>
      <g id="Mask_Group_35" data-name="Mask Group 35" clip-path="url(#clip-path)">
        <g id="COLOR_black" data-name="COLOR/ black" transform="translate(-10 -6)">
          <rect id="Rectangle" width="50" height="49" fill="#fff"/>
        </g>
      </g>
    </g>
  </g>
</svg>
