<svg xmlns="http://www.w3.org/2000/svg" xmlns:xlink="http://www.w3.org/1999/xlink" width="18" height="18" viewBox="0 0 18 18">
  <defs>
    <clipPath id="clip-path">
      <path id="Cocktail" d="M3.1,12.375a.281.281,0,0,1-.281-.281v-.281a.277.277,0,0,1,.219-.28c.029-.006,1.435-.267,2.356-.434a.28.28,0,0,0,.23-.276V8.066a1.125,1.125,0,0,0-.233-.686L.059.453A.281.281,0,0,1,.281,0H12.088a.281.281,0,0,1,.223.453L6.981,7.38a1.125,1.125,0,0,0-.234.686v2.756a.28.28,0,0,0,.23.276c.921.167,2.327.428,2.356.434a.277.277,0,0,1,.219.28v.281a.281.281,0,0,1-.281.281Z" transform="translate(0 0)" fill="none"/>
    </clipPath>
  </defs>
  <g id="Cocktail-2" data-name="Cocktail" opacity="0.5">
    <g id="Group_21" data-name="Group 21" transform="translate(2.818 3.381)">
      <path id="Cocktail-3" data-name="Cocktail" d="M3.1,12.375a.281.281,0,0,1-.281-.281v-.281a.277.277,0,0,1,.219-.28c.029-.006,1.435-.267,2.356-.434a.28.28,0,0,0,.23-.276V8.066a1.125,1.125,0,0,0-.233-.686L.059.453A.281.281,0,0,1,.281,0H12.088a.281.281,0,0,1,.223.453L6.981,7.38a1.125,1.125,0,0,0-.234.686v2.756a.28.28,0,0,0,.23.276c.921.167,2.327.428,2.356.434a.277.277,0,0,1,.219.28v.281a.281.281,0,0,1-.281.281Z" transform="translate(0 0)" fill="none"/>
      <g id="Mask_Group_21" data-name="Mask Group 21" clip-path="url(#clip-path)">
        <g id="_color" data-name="🎨 color" transform="translate(-2.818 -3.381)">
          <rect id="Rectangle" width="18" height="18"/>
        </g>
      </g>
    </g>
  </g>
</svg>
