<svg xmlns="http://www.w3.org/2000/svg" xmlns:xlink="http://www.w3.org/1999/xlink" width="23.272" height="22.79" viewBox="0 0 23.272 22.79">
  <defs>
    <clipPath id="clip-path">
      <path id="Path_10" data-name="Path 10" d="M1272.592,245.952a2.911,2.911,0,0,1-2.909-2.909V231.407a2.912,2.912,0,0,1,2.909-2.909h17.454a2.913,2.913,0,0,1,2.909,2.909v11.636a2.912,2.912,0,0,1-2.909,2.909Zm-.97-2.909a.969.969,0,0,0,.97.97h17.454a.969.969,0,0,0,.97-.97v-6.788h-19.393Zm19.393-8.727v-2.909a.97.97,0,0,0-.97-.97h-17.454a.97.97,0,0,0-.97.97v2.909Z" transform="translate(-1269.683 -228.498)" fill="#b2b2b2"/>
    </clipPath>
  </defs>
  <g id="Settings_Menu_Item-7" data-name="Settings Menu Item-7" transform="translate(0 5.014)">
    <g id="Group-7" transform="translate(0 0)">
      <g id="Icon:-7" transform="translate(0 0.323)">
        <g id="Group_15" data-name="Group 15">
          <path id="Combined_Shape-14" data-name="Combined Shape-14" d="M1272.592,245.952a2.911,2.911,0,0,1-2.909-2.909V231.407a2.912,2.912,0,0,1,2.909-2.909h17.454a2.913,2.913,0,0,1,2.909,2.909v11.636a2.912,2.912,0,0,1-2.909,2.909Zm-.97-2.909a.969.969,0,0,0,.97.97h17.454a.969.969,0,0,0,.97-.97v-6.788h-19.393Zm19.393-8.727v-2.909a.97.97,0,0,0-.97-.97h-17.454a.97.97,0,0,0-.97.97v2.909Z" transform="translate(-1269.683 -228.498)" fill="#b2b2b2"/>
          <g id="Group_75" data-name="Group 75">
            <g id="Group_74" data-name="Group 74" clip-path="url(#clip-path)">
              <g id="Mask_Group_15" data-name="Mask Group 15" transform="translate(0 -2.908)">
                <g id="COLOR_black-6" data-name="COLOR black-6">
                  <rect id="Rectangle-7" width="23" height="23" transform="translate(-0.001 0.149)" fill="#b2b2b2"/>
                </g>
              </g>
            </g>
          </g>
        </g>
      </g>
    </g>
    <path id="Path_26" data-name="Path 26" d="M-24123.273-19257.238s-5.451-11.99-10.84,0" transform="translate(24139.5 19258.563)" fill="none" stroke="#b2b2b2" stroke-width="2"/>
  </g>
</svg>
