<svg xmlns="http://www.w3.org/2000/svg" width="13.901" height="34.98" viewBox="0 0 13.901 34.98">
  <g id="Instrument" transform="translate(0)" opacity="0.8">
    <g id="XMLID_68_" transform="translate(0)">
      <path id="XMLID_132_" d="M.035,29.133c-.223-2.755.66-3.745,1.431-4.612a3.957,3.957,0,0,0,.761-1.051,1.5,1.5,0,0,0-.091-1.48,3.931,3.931,0,0,1-.416-2.224,3.577,3.577,0,0,1,1.37-2.388,3.5,3.5,0,0,0,1.218-1.816C4.56,14.5,4.428,9.428,3.961,1.99A1.863,1.863,0,0,1,5.818,0H8.08A1.861,1.861,0,0,1,9.44.592a1.822,1.822,0,0,1,.5,1.4c-.466,7.439-.6,12.51-.345,13.572a3.444,3.444,0,0,0,1.218,1.816,3.567,3.567,0,0,1,1.37,2.388,3.931,3.931,0,0,1-.416,2.224,1.5,1.5,0,0,0-.091,1.48,4.466,4.466,0,0,0,.761,1.051c.781.867,1.664,1.857,1.43,4.612-.314,3.939-2.577,5.847-6.909,5.847S.35,33.071.035,29.133Z"/>
    </g>
    <g id="XMLID_66_" transform="translate(0.499 16.473)">
      <path id="XMLID_131_" d="M1.575,4.507a.382.382,0,0,1-.243-.092L.561,3.7A1.74,1.74,0,0,1,.4,1.313L.956.629A1.707,1.707,0,0,1,2.133.007,1.727,1.727,0,0,1,3.4.4l.081.071a.348.348,0,0,1,.041.5.343.343,0,0,1-.5.041L2.945.946A1.043,1.043,0,0,0,2.2.711a.972.972,0,0,0-.69.367l-.558.684a1.02,1.02,0,0,0,.091,1.4l.771.714a.368.368,0,0,1,.02.51A.341.341,0,0,1,1.575,4.507Z" transform="translate(0 0)"/>
    </g>
  </g>
</svg>
