<svg xmlns="http://www.w3.org/2000/svg" width="13.965" height="25.082" viewBox="0 0 13.965 25.082">
  <g id="XMLID_48_" transform="translate(0)">
    <g id="XMLID_39_" transform="translate(0 5.776)">
      <path id="XMLID_164_" d="M.9,19.306a.912.912,0,0,1-.9-.918V.918A.912.912,0,0,1,.9,0H13.067a.912.912,0,0,1,.9.918V18.4a.9.9,0,0,1-.9.909Z" transform="translate(0 0)"/>
    </g>
    <g id="XMLID_42_" transform="translate(1.004 7.899)">
      <path id="XMLID_161_" d="M.308,2.879A.316.316,0,0,1,0,2.564V1.646A1.63,1.63,0,0,1,1.611,0h8.743a1.63,1.63,0,0,1,1.611,1.646v.918a.329.329,0,0,1-.317.315Z" transform="translate(0 0)"/>
    </g>
    <g id="XMLID_43_" transform="translate(1.004 10.454)">
      <path id="XMLID_160_" d="M10.24,12.946H1.717A1.738,1.738,0,0,1,0,11.192V0H.616V11.192a1.113,1.113,0,0,0,1.1,1.125H10.24a1.113,1.113,0,0,0,1.1-1.125V0h.616V11.192A1.732,1.732,0,0,1,10.24,12.946Z" transform="translate(0 0)"/>
    </g>
    <g id="XMLID_45_" transform="translate(3.857 2.564)">
      <g id="XMLID_47_" transform="translate(0 0)">
        <rect id="XMLID_159_" width="0.616" height="3.527"/>
      </g>
      <g id="XMLID_46_" transform="translate(5.248 0)">
        <rect id="XMLID_158_" width="0.616" height="3.527"/>
      </g>
    </g>
    <g id="XMLID_41_" transform="translate(3.249)">
      <g id="XMLID_44_">
        <path id="XMLID_155_" d="M5.547,3.3a.316.316,0,0,1-.308-.315v-1.1H1.849v1.1a.316.316,0,0,1-.308.315H.308A.316.316,0,0,1,0,2.987V.945A.935.935,0,0,1,.924,0H6.163a.935.935,0,0,1,.924.945V2.987A.315.315,0,0,1,6.78,3.3Z"/>
      </g>
    </g>
  </g>
</svg>
