<svg xmlns="http://www.w3.org/2000/svg" xmlns:xlink="http://www.w3.org/1999/xlink" width="318.5" height="74.5" viewBox="0 0 318.5 74.5">
  <defs>
    <filter id="Base" x="5.5" y="0.5" width="313" height="74" filterUnits="userSpaceOnUse">
      <feOffset dx="6" dy="6" input="SourceAlpha"/>
      <feGaussianBlur stdDeviation="5" result="blur"/>
      <feFlood flood-opacity="0.102"/>
      <feComposite operator="in" in2="blur"/>
      <feComposite in="SourceGraphic"/>
    </filter>
    <filter id="Base-2" x="0" y="0" width="76" height="73" filterUnits="userSpaceOnUse">
      <feOffset dy="5" input="SourceAlpha"/>
      <feGaussianBlur stdDeviation="5" result="blur-2"/>
      <feFlood flood-opacity="0.051"/>
      <feComposite operator="in" in2="blur-2"/>
      <feComposite in="SourceGraphic"/>
    </filter>
    <clipPath id="clip-path">
      <path id="Combined_Shape" data-name="Combined Shape" d="M5.666,16s.049-10.119,0-11.166H9.38V6.415a3.686,3.686,0,0,1,3.346-1.844C15.169,4.571,17,6.168,17,9.6V16H13.288V10.026c0-1.5-.537-2.524-1.881-2.524A2.033,2.033,0,0,0,9.5,8.859a2.54,2.54,0,0,0-.122.905V16ZM0,16V5.714H3.4V16ZM1.67,3.429A1.634,1.634,0,0,1,0,1.714,1.642,1.642,0,0,1,1.71,0,1.638,1.638,0,0,1,3.4,1.714,1.644,1.644,0,0,1,1.69,3.429Z" transform="translate(8 8)" fill="#b2b2b2"/>
    </clipPath>
  </defs>
  <g id="Btn_-_Wide" data-name="Btn - Wide" transform="translate(15 10)">
    <g transform="matrix(1, 0, 0, 1, -15, -10)" filter="url(#Base)">
      <rect id="Base-3" data-name="Base" width="282" height="43" rx="3" transform="translate(15 10)" fill="#fff" stroke="#f8ab3a" stroke-width="1"/>
    </g>
    <text id="Button_Label:" data-name="Button Label:" transform="translate(36.331 16)" fill="#f8ab3a" font-size="14" font-family="SegoeUI, Segoe UI"><tspan x="57.533" y="15">Login with LinkedIn</tspan></text>
    <g id="Group_4" data-name="Group 4">
      <g transform="matrix(1, 0, 0, 1, -15, -10)" filter="url(#Base-2)">
        <path id="Base-4" data-name="Base" d="M3,0H46a0,0,0,0,1,0,0V43a0,0,0,0,1,0,0H3a3,3,0,0,1-3-3V3A3,3,0,0,1,3,0Z" transform="translate(15 10)" fill="#f8ab3a"/>
      </g>
      <g id="Icon_Social_Facebook_-_Light" data-name="Icon / Social / Facebook - Light" transform="translate(7 6)">
        <g id="Group_49" data-name="Group 49">
          <path id="Combined_Shape-2" data-name="Combined Shape" d="M5.666,16s.049-10.119,0-11.166H9.38V6.415a3.686,3.686,0,0,1,3.346-1.844C15.169,4.571,17,6.168,17,9.6V16H13.288V10.026c0-1.5-.537-2.524-1.881-2.524A2.033,2.033,0,0,0,9.5,8.859a2.54,2.54,0,0,0-.122.905V16ZM0,16V5.714H3.4V16ZM1.67,3.429A1.634,1.634,0,0,1,0,1.714,1.642,1.642,0,0,1,1.71,0,1.638,1.638,0,0,1,3.4,1.714,1.644,1.644,0,0,1,1.69,3.429Z" transform="translate(8 8)" fill="#b2b2b2"/>
          <g id="Mask_Group_55" data-name="Mask Group 55" clip-path="url(#clip-path)">
            <g id="Color:">
              <rect id="Rectangle" width="32" height="32" fill="#fff"/>
            </g>
          </g>
        </g>
      </g>
    </g>
  </g>
</svg>
