<svg id="map-pin" xmlns="http://www.w3.org/2000/svg" xmlns:xlink="http://www.w3.org/1999/xlink" width="14" height="14" viewBox="0 0 14 14">
  <defs>
    <clipPath id="clip-path">
      <path id="Combined_Shape" data-name="Combined Shape" d="M5.833,14a.581.581,0,0,1-.323-.1c-.051-.034-.133-.091-.244-.171-.184-.133-.392-.29-.617-.469a18.192,18.192,0,0,1-1.865-1.705C.937,9.606,0,7.68,0,5.833a5.833,5.833,0,0,1,11.667,0c0,1.848-.937,3.773-2.785,5.724a18.112,18.112,0,0,1-1.865,1.705c-.207.165-.415.322-.617.469-.131.095-.212.149-.242.169A.585.585,0,0,1,5.833,14Zm0-12.834A4.672,4.672,0,0,0,1.167,5.833c0,1.539.829,3.2,2.465,4.922A16.923,16.923,0,0,0,5.377,12.35c.153.122.306.24.457.351.152-.112.305-.23.457-.351a16.923,16.923,0,0,0,1.745-1.594C9.671,9.029,10.5,7.373,10.5,5.833A4.672,4.672,0,0,0,5.833,1.167Zm0,7A2.333,2.333,0,1,1,8.167,5.833,2.336,2.336,0,0,1,5.833,8.167Zm0-3.5A1.167,1.167,0,1,0,7,5.833,1.168,1.168,0,0,0,5.833,4.667Z"/>
    </clipPath>
  </defs>
  <g id="Group_18" data-name="Group 18" transform="translate(1.167 0)">
    <path id="Combined_Shape-2" data-name="Combined Shape" d="M5.833,14a.581.581,0,0,1-.323-.1c-.051-.034-.133-.091-.244-.171-.184-.133-.392-.29-.617-.469a18.192,18.192,0,0,1-1.865-1.705C.937,9.606,0,7.68,0,5.833a5.833,5.833,0,0,1,11.667,0c0,1.848-.937,3.773-2.785,5.724a18.112,18.112,0,0,1-1.865,1.705c-.207.165-.415.322-.617.469-.131.095-.212.149-.242.169A.585.585,0,0,1,5.833,14Zm0-12.834A4.672,4.672,0,0,0,1.167,5.833c0,1.539.829,3.2,2.465,4.922A16.923,16.923,0,0,0,5.377,12.35c.153.122.306.24.457.351.152-.112.305-.23.457-.351a16.923,16.923,0,0,0,1.745-1.594C9.671,9.029,10.5,7.373,10.5,5.833A4.672,4.672,0,0,0,5.833,1.167Zm0,7A2.333,2.333,0,1,1,8.167,5.833,2.336,2.336,0,0,1,5.833,8.167Zm0-3.5A1.167,1.167,0,1,0,7,5.833,1.168,1.168,0,0,0,5.833,4.667Z"/>
    <g id="Mask_Group_18" data-name="Mask Group 18" clip-path="url(#clip-path)">
      <g id="COLOR_black" data-name="COLOR/ black" transform="translate(-1.167 0)">
        <rect id="Rectangle" width="14" height="14"/>
      </g>
    </g>
  </g>
</svg>
