<svg id="map-pin" xmlns="http://www.w3.org/2000/svg" xmlns:xlink="http://www.w3.org/1999/xlink" width="18" height="20" viewBox="0 0 18 20">
  <defs>
    <clipPath id="clip-path">
      <path id="Combined_Shape" data-name="Combined Shape" d="M7.812,20a.744.744,0,0,1-.433-.14c-.068-.048-.178-.13-.326-.244-.246-.19-.524-.415-.826-.67a25.026,25.026,0,0,1-2.5-2.436C1.255,13.723,0,10.972,0,8.333A8.1,8.1,0,0,1,7.812,0a8.1,8.1,0,0,1,7.812,8.333c0,2.639-1.255,5.391-3.729,8.177a24.916,24.916,0,0,1-2.5,2.436c-.277.235-.555.461-.826.67-.176.136-.283.213-.324.242A.749.749,0,0,1,7.812,20Zm0-18.334a6.476,6.476,0,0,0-6.25,6.667c0,2.2,1.111,4.564,3.3,7.031A23.279,23.279,0,0,0,7.2,17.642c.2.174.41.343.612.5.2-.16.409-.329.612-.5a23.279,23.279,0,0,0,2.336-2.278c2.191-2.466,3.3-4.832,3.3-7.031A6.476,6.476,0,0,0,7.812,1.666Zm0,10A3.238,3.238,0,0,1,4.688,8.333,3.238,3.238,0,0,1,7.812,5a3.238,3.238,0,0,1,3.125,3.333A3.238,3.238,0,0,1,7.812,11.667Zm0-5A1.619,1.619,0,0,0,6.25,8.333,1.619,1.619,0,0,0,7.812,10,1.619,1.619,0,0,0,9.375,8.333,1.619,1.619,0,0,0,7.812,6.667Z"/>
    </clipPath>
  </defs>
  <g id="Group_18" data-name="Group 18" transform="translate(1.562 0)">
    <path id="Combined_Shape-2" data-name="Combined Shape" d="M7.812,20a.744.744,0,0,1-.433-.14c-.068-.048-.178-.13-.326-.244-.246-.19-.524-.415-.826-.67a25.026,25.026,0,0,1-2.5-2.436C1.255,13.723,0,10.972,0,8.333A8.1,8.1,0,0,1,7.812,0a8.1,8.1,0,0,1,7.812,8.333c0,2.639-1.255,5.391-3.729,8.177a24.916,24.916,0,0,1-2.5,2.436c-.277.235-.555.461-.826.67-.176.136-.283.213-.324.242A.749.749,0,0,1,7.812,20Zm0-18.334a6.476,6.476,0,0,0-6.25,6.667c0,2.2,1.111,4.564,3.3,7.031A23.279,23.279,0,0,0,7.2,17.642c.2.174.41.343.612.5.2-.16.409-.329.612-.5a23.279,23.279,0,0,0,2.336-2.278c2.191-2.466,3.3-4.832,3.3-7.031A6.476,6.476,0,0,0,7.812,1.666Zm0,10A3.238,3.238,0,0,1,4.688,8.333,3.238,3.238,0,0,1,7.812,5a3.238,3.238,0,0,1,3.125,3.333A3.238,3.238,0,0,1,7.812,11.667Zm0-5A1.619,1.619,0,0,0,6.25,8.333,1.619,1.619,0,0,0,7.812,10,1.619,1.619,0,0,0,9.375,8.333,1.619,1.619,0,0,0,7.812,6.667Z" transform="translate(0)"/>
    <g id="Mask_Group_18" data-name="Mask Group 18" transform="translate(0)" clip-path="url(#clip-path)">
      <g id="COLOR_black" data-name="COLOR/ black" transform="translate(-1.562 0)">
        <rect id="Rectangle" width="19" height="20" fill="#fff"/>
      </g>
    </g>
  </g>
</svg>
