<svg id="Group_55" data-name="Group 55" xmlns="http://www.w3.org/2000/svg" xmlns:xlink="http://www.w3.org/1999/xlink" width="8.777" height="9.568" viewBox="0 0 8.777 9.568">
  <defs>
    <clipPath id="clip-path">
      <path id="UserManAlternate" d="M1.715,7.688C2.893,7.3,3.176,6.919,3.192,5.877a1.945,1.945,0,0,1-.314-.312,2.425,2.425,0,0,1-.446-1.189.224.224,0,0,1-.055.007c-.216,0-.38-.531-.38-.9s.111-.487.217-.487A.6.6,0,0,1,2.3,3a3.7,3.7,0,0,1-.1-.805c0-.668.128-1.133.4-1.2A1.965,1.965,0,0,1,4.588,0c.547,0,.718.106.8.4a.738.738,0,0,1,.8.6c.206.077.4.344.4,1.2a3.7,3.7,0,0,1-.1.805.6.6,0,0,1,.084-.006c.106,0,.217.113.217.487s-.164.9-.38.9a.224.224,0,0,1-.055-.007A2.425,2.425,0,0,1,5.9,5.565a1.945,1.945,0,0,1-.314.312c.016,1.042.3,1.423,1.477,1.811,1.1.363,1.622.616,1.713,1.549a.3.3,0,0,1-.3.331H.3A.3.3,0,0,1,0,9.237C.093,8.3.613,8.051,1.715,7.688Z" fill="none"/>
    </clipPath>
  </defs>
  <path id="UserManAlternate-2" data-name="UserManAlternate" d="M1.715,7.688C2.893,7.3,3.176,6.919,3.192,5.877a1.945,1.945,0,0,1-.314-.312,2.425,2.425,0,0,1-.446-1.189.224.224,0,0,1-.055.007c-.216,0-.38-.531-.38-.9s.111-.487.217-.487A.6.6,0,0,1,2.3,3a3.7,3.7,0,0,1-.1-.805c0-.668.128-1.133.4-1.2A1.965,1.965,0,0,1,4.588,0c.547,0,.718.106.8.4a.738.738,0,0,1,.8.6c.206.077.4.344.4,1.2a3.7,3.7,0,0,1-.1.805.6.6,0,0,1,.084-.006c.106,0,.217.113.217.487s-.164.9-.38.9a.224.224,0,0,1-.055-.007A2.425,2.425,0,0,1,5.9,5.565a1.945,1.945,0,0,1-.314.312c.016,1.042.3,1.423,1.477,1.811,1.1.363,1.622.616,1.713,1.549a.3.3,0,0,1-.3.331H.3A.3.3,0,0,1,0,9.237C.093,8.3.613,8.051,1.715,7.688Z" fill="none"/>
  <g id="Mask_Group_61" data-name="Mask Group 61" clip-path="url(#clip-path)">
    <g id="Color_Blue" data-name="Color / Blue" transform="translate(-2.625 -1.75)">
      <rect id="Rectangle" width="14" height="14" fill="#7f7f7f"/>
    </g>
  </g>
</svg>
