<svg id="Icon_Luggage_Personal_Bag" data-name="Icon / Luggage / Personal Bag" xmlns="http://www.w3.org/2000/svg" width="18.886" height="17.809" viewBox="0 0 18.886 17.809">
  <g id="Personal_Bag" data-name="Personal Bag" transform="translate(0)" opacity="0.8">
    <g id="XMLID_3_" transform="translate(0 4.997)">
      <path id="XMLID_195_" d="M2.09,12.812A2.1,2.1,0,0,1,.017,10.468l1-8.609A2.1,2.1,0,0,1,3.093,0H15.8a2.083,2.083,0,0,1,2.074,1.859l1,8.609A2.1,2.1,0,0,1,16.8,12.812Z" transform="translate(0 0)"/>
    </g>
    <g id="XMLID_21_" transform="translate(2.183 6.866)">
      <path id="XMLID_194_" d="M14.152,6.576a.394.394,0,0,1-.386-.339l-.415-3.544A2.161,2.161,0,0,0,11.211.775h-7.9A2.154,2.154,0,0,0,1.17,2.692L.765,6.178a.381.381,0,0,1-.424.339A.382.382,0,0,1,0,6.091L.409,2.605A2.943,2.943,0,0,1,3.321,0h7.9a2.943,2.943,0,0,1,2.913,2.605l.415,3.544a.376.376,0,0,1-.338.426Z" transform="translate(0 0)"/>
    </g>
    <g id="XMLID_22_" transform="translate(3.807)">
      <path id="XMLID_193_" d="M11.275,5.336H10.6V3.477A2.8,2.8,0,0,0,7.812.678H3.462a2.8,2.8,0,0,0-2.787,2.8V5.336H0V3.477A3.473,3.473,0,0,1,3.462,0h4.35a3.473,3.473,0,0,1,3.462,3.477Z" transform="translate(0)"/>
    </g>
    <g id="XMLID_23_" transform="translate(5.437 1.511)">
      <path id="XMLID_192_" d="M8.015,3.825H7.34V1.976A1.285,1.285,0,0,0,6.057.688h-4.1A1.285,1.285,0,0,0,.675,1.976v1.85H0V1.976A1.974,1.974,0,0,1,1.968,0h4.1A1.974,1.974,0,0,1,8.034,1.976v1.85Z" transform="translate(0 0)"/>
    </g>
  </g>
</svg>
