<svg xmlns="http://www.w3.org/2000/svg" xmlns:xlink="http://www.w3.org/1999/xlink" width="14" height="14" viewBox="0 0 14 14">
  <defs>
    <clipPath id="clip-path">
      <path id="Airplane_Icon" data-name="Airplane Icon" d="M2.981,11.645,3.7,13.562a.3.3,0,0,0,.466.067c.728-.709.815-.74.774-.945L4.6,11.011c-.026-.124-.171-.511-.061-.575.886-.52,2.87-2.087,3.43-2.534a.148.148,0,0,1,.227.056l2.6,5.953a.148.148,0,0,0,.24.045l.676-.676a1.214,1.214,0,0,0,.332-1.093L10.749,5.629a.3.3,0,0,1,.084-.27l1.951-1.951c.57-.556,1.647-2.442,1.032-3.075L13.741.259,13.666.184c-.632-.615-2.518.462-3.074,1.032L8.641,3.167a.3.3,0,0,1-.27.084L1.812,1.958A1.212,1.212,0,0,0,.72,2.29l-.677.677a.148.148,0,0,0,.045.239l5.953,2.6a.148.148,0,0,1,.056.227C5.651,6.6,4.083,8.58,3.564,9.465c-.063.111-.45-.035-.575-.06L1.316,9.066c-.2-.041-.236.046-.945.774a.3.3,0,0,0,.067.465l1.917.714c.026.014.047.029.071.044l.511.511C2.951,11.6,2.966,11.619,2.981,11.645Z" transform="translate(2 2)" fill="#222"/>
    </clipPath>
  </defs>
  <g id="Group_60" data-name="Group 60" transform="translate(-2 -2)">
    <path id="Airplane_Icon-2" data-name="Airplane Icon" d="M2.981,11.645,3.7,13.562a.3.3,0,0,0,.466.067c.728-.709.815-.74.774-.945L4.6,11.011c-.026-.124-.171-.511-.061-.575.886-.52,2.87-2.087,3.43-2.534a.148.148,0,0,1,.227.056l2.6,5.953a.148.148,0,0,0,.24.045l.676-.676a1.214,1.214,0,0,0,.332-1.093L10.749,5.629a.3.3,0,0,1,.084-.27l1.951-1.951c.57-.556,1.647-2.442,1.032-3.075L13.741.259,13.666.184c-.632-.615-2.518.462-3.074,1.032L8.641,3.167a.3.3,0,0,1-.27.084L1.812,1.958A1.212,1.212,0,0,0,.72,2.29l-.677.677a.148.148,0,0,0,.045.239l5.953,2.6a.148.148,0,0,1,.056.227C5.651,6.6,4.083,8.58,3.564,9.465c-.063.111-.45-.035-.575-.06L1.316,9.066c-.2-.041-.236.046-.945.774a.3.3,0,0,0,.067.465l1.917.714c.026.014.047.029.071.044l.511.511C2.951,11.6,2.966,11.619,2.981,11.645Z" transform="translate(2 2)" fill="#222"/>
    <g id="Mask_Group_66" data-name="Mask Group 66" clip-path="url(#clip-path)">
      <g id="Color:">
        <rect id="Rectangle" width="18" height="18" fill="#fff"/>
      </g>
    </g>
  </g>
</svg>
