<svg xmlns="http://www.w3.org/2000/svg" width="18.335" height="18.678" viewBox="0 0 18.335 18.678">
  <path id="Combined_Shape" data-name="Combined Shape" d="M16.77,18.4,12.614,14.17a7.666,7.666,0,0,1-4.821,1.706A7.875,7.875,0,0,1,0,7.938,7.875,7.875,0,0,1,7.792,0a7.875,7.875,0,0,1,7.792,7.938A7.993,7.993,0,0,1,13.91,12.85l4.157,4.234a.946.946,0,0,1,0,1.321.906.906,0,0,1-1.3,0ZM1.833,7.938a6.022,6.022,0,0,0,5.959,6.07,5.886,5.886,0,0,0,4.184-1.751L12,12.228l.029-.028a6.109,6.109,0,0,0,1.719-4.261A6.022,6.022,0,0,0,7.792,1.867,6.022,6.022,0,0,0,1.833,7.938Z" fill="#fefefe"/>
</svg>
