<svg id="map-pin_copy_3" data-name="map-pin copy 3" xmlns="http://www.w3.org/2000/svg" xmlns:xlink="http://www.w3.org/1999/xlink" width="14" height="14" viewBox="0 0 14 14">
  <defs>
    <clipPath id="clip-path">
      <path id="Couch" d="M10.7,7a.2.2,0,0,1-.178-.106l-.5-.878a.207.207,0,0,0-.178-.106H2.606a.207.207,0,0,0-.178.106l-.5.878A.2.2,0,0,1,1.749,7h-.3a.212.212,0,0,1-.207-.218V5.911A1.276,1.276,0,0,1,0,4.6V1.991a.426.426,0,0,1,.415-.435h.83a.425.425,0,0,1,.414.435V3.625a.106.106,0,0,0,.1.109h8.918a.106.106,0,0,0,.1-.109V1.991a.426.426,0,0,1,.415-.435h.829a.426.426,0,0,1,.415.435V4.6A1.276,1.276,0,0,1,11.2,5.911v.872A.213.213,0,0,1,10.993,7ZM6.632,3.111a.4.4,0,0,1-.41-.389.4.4,0,0,1-.409.389H2.743a.4.4,0,0,1-.41-.389V.389A.4.4,0,0,1,2.743,0h3.07a.4.4,0,0,1,.409.389A.4.4,0,0,1,6.632,0H9.7a.4.4,0,0,1,.409.389V2.722a.4.4,0,0,1-.409.389Z" fill="none"/>
    </clipPath>
  </defs>
  <g id="Group_58" data-name="Group 58" transform="translate(0.778 3.111)">
    <path id="Couch-2" data-name="Couch" d="M10.7,7a.2.2,0,0,1-.178-.106l-.5-.878a.207.207,0,0,0-.178-.106H2.606a.207.207,0,0,0-.178.106l-.5.878A.2.2,0,0,1,1.749,7h-.3a.212.212,0,0,1-.207-.218V5.911A1.276,1.276,0,0,1,0,4.6V1.991a.426.426,0,0,1,.415-.435h.83a.425.425,0,0,1,.414.435V3.625a.106.106,0,0,0,.1.109h8.918a.106.106,0,0,0,.1-.109V1.991a.426.426,0,0,1,.415-.435h.829a.426.426,0,0,1,.415.435V4.6A1.276,1.276,0,0,1,11.2,5.911v.872A.213.213,0,0,1,10.993,7ZM6.632,3.111a.4.4,0,0,1-.41-.389.4.4,0,0,1-.409.389H2.743a.4.4,0,0,1-.41-.389V.389A.4.4,0,0,1,2.743,0h3.07a.4.4,0,0,1,.409.389A.4.4,0,0,1,6.632,0H9.7a.4.4,0,0,1,.409.389V2.722a.4.4,0,0,1-.409.389Z" fill="none"/>
    <g id="Mask_Group_64" data-name="Mask Group 64" clip-path="url(#clip-path)">
      <g id="Color_Blue" data-name="Color / Blue" transform="translate(-0.778 -3.111)">
        <rect id="Rectangle" width="14" height="14" fill="#7f7f7f"/>
      </g>
    </g>
  </g>
</svg>
