<svg id="Group_56" data-name="Group 56" xmlns="http://www.w3.org/2000/svg" xmlns:xlink="http://www.w3.org/1999/xlink" width="10.125" height="18" viewBox="0 0 10.125 18">
  <defs>
    <clipPath id="clip-path">
      <path id="Combined_Shape" data-name="Combined Shape" d="M8.346,17.26l-.9-5.062H3.9a.923.923,0,0,1-.881-.777l-.75-4.836a1.855,1.855,0,0,1,.412-1.46A1.83,1.83,0,0,1,4.051,4.5h.281A1.753,1.753,0,0,1,6.076,6.15l.3,4.228H8.2a.889.889,0,0,1,.882.739l1.032,5.8A.9.9,0,0,1,9.4,17.981.509.509,0,0,1,9.227,18,.889.889,0,0,1,8.346,17.26ZM3.436,14.625A2.611,2.611,0,0,1,.814,12.462L0,7.444a.627.627,0,0,1,.52-.69.641.641,0,0,1,.713.5l.81,5.017a1.378,1.378,0,0,0,1.388,1.156h2.7a.6.6,0,1,1,0,1.194ZM2.25,1.688A1.688,1.688,0,1,1,3.938,3.375,1.687,1.687,0,0,1,2.25,1.688Z" transform="translate(0)" fill="#262626"/>
    </clipPath>
  </defs>
  <path id="Combined_Shape-2" data-name="Combined Shape" d="M8.346,17.26l-.9-5.062H3.9a.923.923,0,0,1-.881-.777l-.75-4.836a1.855,1.855,0,0,1,.412-1.46A1.83,1.83,0,0,1,4.051,4.5h.281A1.753,1.753,0,0,1,6.076,6.15l.3,4.228H8.2a.889.889,0,0,1,.882.739l1.032,5.8A.9.9,0,0,1,9.4,17.981.509.509,0,0,1,9.227,18,.889.889,0,0,1,8.346,17.26ZM3.436,14.625A2.611,2.611,0,0,1,.814,12.462L0,7.444a.627.627,0,0,1,.52-.69.641.641,0,0,1,.713.5l.81,5.017a1.378,1.378,0,0,0,1.388,1.156h2.7a.6.6,0,1,1,0,1.194ZM2.25,1.688A1.688,1.688,0,1,1,3.938,3.375,1.687,1.687,0,0,1,2.25,1.688Z" transform="translate(0)" fill="#262626"/>
  <g id="Mask_Group_62" data-name="Mask Group 62" clip-path="url(#clip-path)">
    <g id="Color_Blue" data-name="Color / Blue" transform="translate(-4.5)">
      <rect id="Rectangle" width="18" height="18" fill="#7f7f7f"/>
    </g>
  </g>
</svg>
