<svg xmlns="http://www.w3.org/2000/svg" width="15.756" height="29.914" viewBox="0 0 15.756 29.914">
  <g id="Sport_Bag" data-name="Sport Bag" transform="translate(0 0)" opacity="0.8">
    <g id="XMLID_59_" transform="translate(1.882)">
      <path id="XMLID_141_" d="M9.038,29.914H2.008A1.948,1.948,0,0,1,0,28.036v-4.1a.4.4,0,0,1,.4-.378.4.4,0,0,1,.4.378v4.1a1.17,1.17,0,0,0,1.2,1.122h7.03a1.17,1.17,0,0,0,1.2-1.122V1.705A.986.986,0,0,0,9.223.755h-7.4a.986.986,0,0,0-1.016.95V7.662a.4.4,0,0,1-.4.378A.4.4,0,0,1,0,7.662V1.705A1.771,1.771,0,0,1,1.824,0h7.4a1.771,1.771,0,0,1,1.824,1.705V28.036A1.948,1.948,0,0,1,9.038,29.914Z" transform="translate(0)"/>
    </g>
    <g id="XMLID_60_" transform="translate(0 7.061)">
      <path id="XMLID_138_" d="M8.046,19.216l-2.69-.464A6.236,6.236,0,0,1,0,12.741V3.234A3.187,3.187,0,0,1,1.5.569,3.672,3.672,0,0,1,4.7.212L7.884,1.357A3.253,3.253,0,0,1,10.1,4.367V17.608a1.566,1.566,0,0,1-.623,1.241,1.778,1.778,0,0,1-1.12.388A3.037,3.037,0,0,1,8.046,19.216Z" transform="translate(0 0)"/>
    </g>
    <g id="XMLID_62_" transform="translate(1.893 3.097)">
      <path id="XMLID_137_" d="M10.631.755H.4A.4.4,0,0,1,0,.378.4.4,0,0,1,.4,0H10.631a.4.4,0,0,1,.4.378A.389.389,0,0,1,10.631.755Z" transform="translate(0 0)"/>
    </g>
    <g id="XMLID_63_" transform="translate(12.115 15.675)">
      <path id="XMLID_136_" d="M.409,12.048a.417.417,0,0,1-.369-.227.363.363,0,0,1,.208-.5l1.108-.464A2.329,2.329,0,0,0,2.833,8.735V3.6A2.284,2.284,0,0,0,1.725,1.667L.178.7A.378.378,0,0,1,.063.167.44.44,0,0,1,.629.059l1.547.971A3.044,3.044,0,0,1,3.641,3.6V8.735a3.077,3.077,0,0,1-1.962,2.817l-1.108.464A.39.39,0,0,1,.409,12.048Z" transform="translate(0 0)"/>
    </g>
    <g id="XMLID_64_" transform="translate(12.12 5.914)">
      <path id="XMLID_135_" d="M.4,6.7a.409.409,0,0,1-.335-.173A.368.368,0,0,1,.185,6l.808-.5A1.882,1.882,0,0,0,1.928,3.9V.755H.4A.4.4,0,0,1,0,.378.4.4,0,0,1,.4,0H2.332a.4.4,0,0,1,.4.378V3.9a2.627,2.627,0,0,1-1.3,2.245l-.808.5A.4.4,0,0,1,.4,6.7Z" transform="translate(0 0)"/>
    </g>
  </g>
</svg>
