<svg xmlns="http://www.w3.org/2000/svg" xmlns:xlink="http://www.w3.org/1999/xlink" width="18" height="18" viewBox="0 0 18 18">
  <defs>
    <clipPath id="clip-path">
      <path id="Toilet" d="M2.531,13.5a.281.281,0,0,1-.281-.281c0-.725,1.125-.773,1.125-1.406,0-.774-2.25-1.105-2.25-3.375a.281.281,0,0,1,.281-.281H9.844a.281.281,0,0,1,.281.281c0,2.27-2.25,2.6-2.25,3.375,0,.633,1.125.681,1.125,1.406a.281.281,0,0,1-.281.281ZM3.656,7.594a.281.281,0,0,1-.281-.281V7.031a.562.562,0,0,1,.563-.562H9.563a.562.562,0,0,1,.562.562v.281a.281.281,0,0,1-.281.281Zm-3.094,0A.563.563,0,0,1,0,7.031V.562A.563.563,0,0,1,.562,0H2.25a.563.563,0,0,1,.562.562V7.031a.563.563,0,0,1-.562.562Z" fill="none"/>
    </clipPath>
  </defs>
  <g id="Toilet-2" data-name="Toilet" opacity="0.5">
    <g id="Group_20" data-name="Group 20" transform="translate(3.938 2.25)">
      <path id="Toilet-3" data-name="Toilet" d="M2.531,13.5a.281.281,0,0,1-.281-.281c0-.725,1.125-.773,1.125-1.406,0-.774-2.25-1.105-2.25-3.375a.281.281,0,0,1,.281-.281H9.844a.281.281,0,0,1,.281.281c0,2.27-2.25,2.6-2.25,3.375,0,.633,1.125.681,1.125,1.406a.281.281,0,0,1-.281.281ZM3.656,7.594a.281.281,0,0,1-.281-.281V7.031a.562.562,0,0,1,.563-.562H9.563a.562.562,0,0,1,.562.562v.281a.281.281,0,0,1-.281.281Zm-3.094,0A.563.563,0,0,1,0,7.031V.562A.563.563,0,0,1,.562,0H2.25a.563.563,0,0,1,.562.562V7.031a.563.563,0,0,1-.562.562Z" fill="none"/>
      <g id="Mask_Group_20" data-name="Mask Group 20" clip-path="url(#clip-path)">
        <g id="_color" data-name="🎨 color" transform="translate(-3.938 -2.25)">
          <rect id="Rectangle" width="18" height="18"/>
        </g>
      </g>
    </g>
  </g>
</svg>
