<svg xmlns="http://www.w3.org/2000/svg" xmlns:xlink="http://www.w3.org/1999/xlink" width="18" height="18" viewBox="0 0 18 18">
  <defs>
    <clipPath id="clip-path">
      <path id="WiFi" d="M6.825,10.2,5.787,9.168a.587.587,0,0,1,.125-.927,2.839,2.839,0,0,1,2.787,0,.587.587,0,0,1,.125.927L7.784,10.2a.681.681,0,0,1-.959,0Zm-3.1-3.062-.671-.677A.634.634,0,0,1,3,5.5a6.7,6.7,0,0,1,8.6,0,.6.6,0,0,1,.031.877l-.756.763a.594.594,0,0,1-.8.038,4.4,4.4,0,0,0-5.558,0h0a.592.592,0,0,1-.8-.036Zm9.163-2.782a8.438,8.438,0,0,0-11.16,0,.56.56,0,0,1-.768-.023l-.8-.8a.563.563,0,0,1,.022-.818,10.688,10.688,0,0,1,14.244,0,.563.563,0,0,1,.022.818l-.8.8a.56.56,0,0,1-.768.023Z" transform="translate(0)" fill="none"/>
    </clipPath>
  </defs>
  <g id="WiFi-2" data-name="WiFi" opacity="0.5">
    <g id="Group_25" data-name="Group 25" transform="translate(1.698 3.384)">
      <path id="WiFi-3" data-name="WiFi" d="M6.825,10.2,5.787,9.168a.587.587,0,0,1,.125-.927,2.839,2.839,0,0,1,2.787,0,.587.587,0,0,1,.125.927L7.784,10.2a.681.681,0,0,1-.959,0Zm-3.1-3.062-.671-.677A.634.634,0,0,1,3,5.5a6.7,6.7,0,0,1,8.6,0,.6.6,0,0,1,.031.877l-.756.763a.594.594,0,0,1-.8.038,4.4,4.4,0,0,0-5.558,0h0a.592.592,0,0,1-.8-.036Zm9.163-2.782a8.438,8.438,0,0,0-11.16,0,.56.56,0,0,1-.768-.023l-.8-.8a.563.563,0,0,1,.022-.818,10.688,10.688,0,0,1,14.244,0,.563.563,0,0,1,.022.818l-.8.8a.56.56,0,0,1-.768.023Z" transform="translate(0)" fill="none"/>
      <g id="Mask_Group_25" data-name="Mask Group 25" clip-path="url(#clip-path)">
        <g id="_color" data-name="🎨 color" transform="translate(-1.698 -3.384)">
          <rect id="Rectangle" width="18" height="18"/>
        </g>
      </g>
    </g>
  </g>
</svg>
