<svg id="map-pin_copy_4" data-name="map-pin copy 4" xmlns="http://www.w3.org/2000/svg" xmlns:xlink="http://www.w3.org/1999/xlink" width="11.37" height="8.086" viewBox="0 0 11.37 8.086">
  <defs>
    <clipPath id="clip-path">
      <path id="WiFi" d="M5.309,7.933,4.5,7.13a.456.456,0,0,1,.1-.721,2.208,2.208,0,0,1,2.167,0,.456.456,0,0,1,.1.721l-.808.8a.53.53,0,0,1-.746,0ZM2.9,5.552l-.522-.527a.493.493,0,0,1-.043-.75,5.208,5.208,0,0,1,6.69,0,.466.466,0,0,1,.024.682l-.588.594a.462.462,0,0,1-.619.029,3.419,3.419,0,0,0-4.323,0h0A.461.461,0,0,1,2.9,5.552Zm7.127-2.164a6.563,6.563,0,0,0-8.68,0,.436.436,0,0,1-.6-.018L.129,2.751a.438.438,0,0,1,.017-.636,8.313,8.313,0,0,1,11.078,0,.438.438,0,0,1,.017.636l-.619.619a.436.436,0,0,1-.6.018Z" fill="none"/>
    </clipPath>
  </defs>
  <g id="Group_25" data-name="Group 25">
    <path id="WiFi-2" data-name="WiFi" d="M5.309,7.933,4.5,7.13a.456.456,0,0,1,.1-.721,2.208,2.208,0,0,1,2.167,0,.456.456,0,0,1,.1.721l-.808.8a.53.53,0,0,1-.746,0ZM2.9,5.552l-.522-.527a.493.493,0,0,1-.043-.75,5.208,5.208,0,0,1,6.69,0,.466.466,0,0,1,.024.682l-.588.594a.462.462,0,0,1-.619.029,3.419,3.419,0,0,0-4.323,0h0A.461.461,0,0,1,2.9,5.552Zm7.127-2.164a6.563,6.563,0,0,0-8.68,0,.436.436,0,0,1-.6-.018L.129,2.751a.438.438,0,0,1,.017-.636,8.313,8.313,0,0,1,11.078,0,.438.438,0,0,1,.017.636l-.619.619a.436.436,0,0,1-.6.018Z" fill="none"/>
    <g id="Mask_Group_25" data-name="Mask Group 25" clip-path="url(#clip-path)">
      <g id="_color" data-name="🎨 color" transform="translate(-1.321 -2.632)">
        <rect id="Rectangle" width="14" height="14" fill="#f8ab3a"/>
      </g>
    </g>
  </g>
</svg>
