<svg id="Group-5" xmlns="http://www.w3.org/2000/svg" xmlns:xlink="http://www.w3.org/1999/xlink" width="23.271" height="19.393" viewBox="0 0 23.271 19.393">
  <defs>
    <clipPath id="clip-path">
      <path id="Path_9" data-name="Path 9" d="M1284.667,208.016a.971.971,0,0,1-.97-.97v-1.939a2.913,2.913,0,0,0-2.909-2.909h-7.757a2.913,2.913,0,0,0-2.909,2.909v1.939a.97.97,0,1,1-1.939,0v-1.939a4.855,4.855,0,0,1,4.848-4.848h7.757a4.855,4.855,0,0,1,4.848,4.848v1.939A.971.971,0,0,1,1284.667,208.016Zm-7.757-9.7a4.848,4.848,0,1,1,4.848-4.848A4.848,4.848,0,0,1,1276.91,198.32Zm0-7.757a2.909,2.909,0,1,0,2.909,2.909A2.909,2.909,0,0,0,1276.91,190.562Zm7-1.789C1286.531,189.444,1283.392,188.648,1283.912,188.773Z" transform="translate(-1268.183 -188.623)" fill="none" stroke="rgba(0,0,0,0)" stroke-width="1"/>
    </clipPath>
  </defs>
  <g id="Icon:-5">
    <g id="Group_11" data-name="Group 11">
      <path id="Combined_Shape-12" data-name="Combined Shape-12" d="M1290.485,208.016a.971.971,0,0,1-.971-.97v-1.939a2.908,2.908,0,0,0-2.182-2.815.97.97,0,1,1,.485-1.879h0a4.85,4.85,0,0,1,3.638,4.693v1.939A.971.971,0,0,1,1290.485,208.016Zm-5.818,0a.971.971,0,0,1-.97-.97v-1.939a2.913,2.913,0,0,0-2.909-2.909h-7.757a2.913,2.913,0,0,0-2.909,2.909v1.939a.97.97,0,1,1-1.939,0v-1.939a4.855,4.855,0,0,1,4.848-4.848h7.757a4.855,4.855,0,0,1,4.848,4.848v1.939A.971.971,0,0,1,1284.667,208.016Zm-7.757-9.7a4.848,4.848,0,1,1,4.848-4.848A4.848,4.848,0,0,1,1276.91,198.32Zm0-7.757a2.909,2.909,0,1,0,2.909,2.909A2.909,2.909,0,0,0,1276.91,190.562Zm6.788,7.641a.97.97,0,0,1-.241-1.91,2.909,2.909,0,0,0,0-5.636.97.97,0,1,1,.455-1.885l.026.006a4.848,4.848,0,0,1,0,9.394A.889.889,0,0,1,1283.7,198.2Z" transform="translate(-1268.183 -188.623)"/>
      <g id="Group_73" data-name="Group 73">
        <g id="Group_72" data-name="Group 72" clip-path="url(#clip-path)">
          <g id="Mask_Group_11" data-name="Mask Group 11" transform="translate(0 -1.939)">
            <g id="_Color" data-name=" Color">
              <rect id="Rectangle-5" width="23.272" height="23.272" fill="#222"/>
            </g>
          </g>
          <path id="Path_73" data-name="Path 73" d="M20.912.9,15.4,11.309" fill="none" stroke="#707070" stroke-linecap="round" stroke-width="2"/>
        </g>
      </g>
    </g>
  </g>
</svg>
