<svg xmlns="http://www.w3.org/2000/svg" xmlns:xlink="http://www.w3.org/1999/xlink" width="20.943" height="20.961" viewBox="0 0 20.943 20.961">
  <defs>
    <clipPath id="clip-path">
      <path id="Combined_Shape" data-name="Combined Shape" d="M19.155,20.654,14.408,15.9a8.919,8.919,0,1,1,1.481-1.482l4.748,4.751a1.048,1.048,0,1,1-1.482,1.483ZM2.094,8.908A6.8,6.8,0,0,0,13.675,13.76l.036-.037.037-.036A6.808,6.808,0,1,0,2.094,8.908Z" fill="none"/>
    </clipPath>
  </defs>
  <g id="Group_80" data-name="Group 80" transform="translate(24302.668 19524)">
    <g id="Group_78" data-name="Group 78" transform="translate(-24302.668 -19524)">
      <path id="Combined_Shape-2" data-name="Combined Shape" d="M19.155,20.654,14.408,15.9a8.919,8.919,0,1,1,1.481-1.482l4.748,4.751a1.048,1.048,0,1,1-1.482,1.483ZM2.094,8.908A6.8,6.8,0,0,0,13.675,13.76l.036-.037.037-.036A6.808,6.808,0,1,0,2.094,8.908Z" fill="#fff"/>
    </g>
  </g>
</svg>
