<svg id="Group_69" data-name="Group 69" xmlns="http://www.w3.org/2000/svg" width="19.393" height="21.332" viewBox="0 0 19.393 21.332">
  <path id="Combined_Shape-15" data-name="Combined Shape-15" d="M1271.092,129.455a2.911,2.911,0,0,1-2.909-2.909V112.971a2.913,2.913,0,0,1,2.909-2.909h1.939v-.97a.97.97,0,0,1,1.939,0v.97h5.818v-.97a.97.97,0,0,1,1.939,0v.97h1.939a2.913,2.913,0,0,1,2.909,2.909v13.575a2.911,2.911,0,0,1-2.909,2.909Zm-.97-2.909a.969.969,0,0,0,.97.97h13.575a.969.969,0,0,0,.97-.97V117.82h-15.514Zm15.514-10.666v-2.909a.972.972,0,0,0-.97-.97h-1.939v.97a.97.97,0,0,1-1.939,0V112h-5.818v.97a.97.97,0,0,1-1.939,0V112h-1.939a.972.972,0,0,0-.97.971v2.908Z" transform="translate(-1268.184 -108.123)" fill="#222"/>
</svg>
