<svg id="Icon:" xmlns="http://www.w3.org/2000/svg" xmlns:xlink="http://www.w3.org/1999/xlink" width="24" height="24" viewBox="0 0 24 24">
  <defs>
    <clipPath id="clip-path">
      <path id="Combined_Shape" data-name="Combined Shape" d="M16.25,22.5h-13A3.166,3.166,0,0,1,0,19.432V5.114A3.167,3.167,0,0,1,3.25,2.045H4.333A2.112,2.112,0,0,1,6.5,0H13a2.111,2.111,0,0,1,2.167,2.045H16.25A3.167,3.167,0,0,1,19.5,5.114V19.432A3.166,3.166,0,0,1,16.25,22.5ZM3.25,4.091A1.056,1.056,0,0,0,2.166,5.114V19.432A1.055,1.055,0,0,0,3.25,20.454h13a1.055,1.055,0,0,0,1.083-1.023V5.114A1.056,1.056,0,0,0,16.25,4.091H15.167A2.112,2.112,0,0,1,13,6.137H6.5A2.112,2.112,0,0,1,4.333,4.091ZM6.5,2.045V4.091H13V2.045Z"/>
    </clipPath>
  </defs>
  <g id="Group_17" data-name="Group 17" transform="translate(2.25 0.75)">
    <path id="Combined_Shape-2" data-name="Combined Shape" d="M16.25,22.5h-13A3.166,3.166,0,0,1,0,19.432V5.114A3.167,3.167,0,0,1,3.25,2.045H4.333A2.112,2.112,0,0,1,6.5,0H13a2.111,2.111,0,0,1,2.167,2.045H16.25A3.167,3.167,0,0,1,19.5,5.114V19.432A3.166,3.166,0,0,1,16.25,22.5ZM3.25,4.091A1.056,1.056,0,0,0,2.166,5.114V19.432A1.055,1.055,0,0,0,3.25,20.454h13a1.055,1.055,0,0,0,1.083-1.023V5.114A1.056,1.056,0,0,0,16.25,4.091H15.167A2.112,2.112,0,0,1,13,6.137H6.5A2.112,2.112,0,0,1,4.333,4.091ZM6.5,2.045V4.091H13V2.045Z" transform="translate(0 0)"/>
    <g id="Mask_Group_17" data-name="Mask Group 17" transform="translate(0 0)" clip-path="url(#clip-path)">
      <g id="COLOR_black" data-name="COLOR/ black" transform="translate(-3.25 -1.023)">
        <rect id="Rectangle" width="26" height="24.546" fill="#222"/>
      </g>
    </g>
  </g>
</svg>
