<?xml version="1.0" encoding="utf-8"?>
<!-- Generator: Adobe Illustrator 24.2.1, SVG Export Plug-In . SVG Version: 6.00 Build 0)  -->
<svg version="1.1" id="Layer_1" xmlns="http://www.w3.org/2000/svg" xmlns:xlink="http://www.w3.org/1999/xlink" x="0px" y="0px"
	 viewBox="0 0 20 20" style="enable-background:new 0 0 20 20;" xml:space="preserve">
<style type="text/css">
	.st0{fill:#222222;}
	.st1{clip-path:url(#SVGID_2_);}
	.st2{fill:none;stroke:#222222;stroke-width:2;}
	.st3{clip-path:url(#SVGID_4_);}
</style>
<g id="Settings_Menu_Item-7" transform="translate(0 5.014)">
	<g id="Group-7" transform="translate(0 0)">
		<g id="Icon:-7" transform="translate(0 0.323)">
			<g id="Group_15">
				<path id="Combined_Shape-14" class="st0" d="M42.35,36.24c-1.61,0-2.91-1.3-2.91-2.91V21.69c0-1.61,1.3-2.91,2.91-2.91H59.8
					c1.61,0,2.91,1.3,2.91,2.91v11.64c0,1.61-1.3,2.91-2.91,2.91H42.35z M41.38,33.33c0,0.54,0.43,0.97,0.97,0.97c0,0,0,0,0,0H59.8
					c0.54,0,0.97-0.43,0.97-0.97c0,0,0,0,0,0v-6.79H41.38L41.38,33.33z M60.77,24.6v-2.91c0-0.54-0.43-0.97-0.97-0.97H42.35
					c-0.54,0-0.97,0.43-0.97,0.97v2.91H60.77z"/>
				<g id="Group_75">
					<g>
						<defs>
							<path id="SVGID_1_" d="M42.35,36.24c-1.61,0-2.91-1.3-2.91-2.91V21.69c0-1.61,1.3-2.91,2.91-2.91H59.8
								c1.61,0,2.91,1.3,2.91,2.91v11.64c0,1.61-1.3,2.91-2.91,2.91H42.35z M41.38,33.33c0,0.54,0.43,0.97,0.97,0.97c0,0,0,0,0,0
								H59.8c0.54,0,0.97-0.43,0.97-0.97c0,0,0,0,0,0v-6.79H41.38L41.38,33.33z M60.77,24.6v-2.91c0-0.54-0.43-0.97-0.97-0.97H42.35
								c-0.54,0-0.97,0.43-0.97,0.97v2.91H60.77z"/>
						</defs>
						<clipPath id="SVGID_2_">
							<use xlink:href="#SVGID_1_"  style="overflow:visible;"/>
						</clipPath>
						<g id="Group_74" class="st1">
							<g id="Mask_Group_15" transform="translate(0 -2.908)">
								<g id="COLOR_black-6">
									<rect id="Rectangle-7" x="39.44" y="18.93" class="st0" width="23" height="23"/>
								</g>
							</g>
						</g>
					</g>
				</g>
			</g>
		</g>
	</g>
	<path id="Path_26" class="st2" d="M55.67,20.11c0,0-5.45-11.99-10.84,0"/>
</g>
<g id="Settings_Menu_Item-7_1_" transform="translate(0 5.014)">
	<g id="Group-7_1_" transform="translate(0 0)">
		<g id="Icon:-7_1_" transform="translate(0 0.323)">
			<g id="Group_15_1_">
				<path id="Combined_Shape-14_1_" class="st0" d="M2.5,14.66c-1.38,0-2.5-1.14-2.5-2.54V1.94C0,0.54,1.12-0.6,2.5-0.6h15
					c1.38,0,2.5,1.14,2.5,2.54v10.18c0,1.4-1.12,2.54-2.5,2.54H2.5z M1.67,12.12c0,0.47,0.37,0.85,0.83,0.85c0,0,0,0,0,0h15
					c0.46,0,0.83-0.38,0.83-0.85c0,0,0,0,0,0V6.18H1.67L1.67,12.12z M18.33,4.49V1.94c0-0.47-0.37-0.85-0.83-0.85h-15
					c-0.46,0-0.83,0.38-0.83,0.85v2.54H18.33z"/>
				<g id="Group_75_1_">
					<g>
						<defs>
							<path id="SVGID_3_" d="M2.5,14.66c-1.38,0-2.5-1.14-2.5-2.54V1.94C0,0.54,1.12-0.6,2.5-0.6h15c1.38,0,2.5,1.14,2.5,2.54
								v10.18c0,1.4-1.12,2.54-2.5,2.54H2.5z M1.67,12.12c0,0.47,0.37,0.85,0.83,0.85c0,0,0,0,0,0h15c0.46,0,0.83-0.38,0.83-0.85
								c0,0,0,0,0,0V6.18H1.67L1.67,12.12z M18.33,4.49V1.94c0-0.47-0.37-0.85-0.83-0.85h-15c-0.46,0-0.83,0.38-0.83,0.85v2.54
								H18.33z"/>
						</defs>
						<use xlink:href="#SVGID_3_"  style="overflow:visible;fill:#222222;"/>
						<clipPath id="SVGID_4_">
							<use xlink:href="#SVGID_3_"  style="overflow:visible;"/>
						</clipPath>
						<g id="Group_74_1_" class="st3">
							<g id="Mask_Group_15_1_" transform="translate(0 -2.908)">
								<g id="COLOR_black-6_1_">
									<rect id="Rectangle-7_1_" x="0" y="-0.1" class="st0" width="19.77" height="20.11"/>
								</g>
							</g>
						</g>
					</g>
				</g>
			</g>
		</g>
	</g>
	<g id="Path_26_1_">
		<path class="st0" d="M13.09,0.99c-0.48-1.06-2.24-4.1-3.99-4.1c0,0,0,0-0.01,0c-1.18,0-2.43,1.42-3.61,4.1L3.78,0.21
			C5.3-3.25,7.09-5.01,9.1-5.01c0,0,0.01,0,0.01,0c3.27,0,5.46,4.68,5.69,5.22L13.09,0.99z"/>
	</g>
</g>
</svg>
