<svg xmlns="http://www.w3.org/2000/svg" width="19.662" height="18.983" viewBox="0 0 19.662 18.983">
  <g id="Settings_Menu_Item-5" data-name="Settings Menu Item-5" transform="translate(0 0)">
    <g id="Group-5" transform="translate(0 0)">
      <g id="Group_71" data-name="Group 71">
        <path id="Path_8" data-name="Path 8" d="M1269.579,166.775V152.016a2.863,2.863,0,0,1,2.862-2.864h13.937a2.863,2.863,0,0,1,2.862,2.864v10.635a2.862,2.862,0,0,1-2.862,2.862h-11.1a.918.918,0,0,0-.542.177l-3,2.182A1.357,1.357,0,0,1,1269.579,166.775Zm2.862-15.684a.924.924,0,0,0-.923.924v13.616l2.078-1.51a2.886,2.886,0,0,1,1.683-.548h11.1a.924.924,0,0,0,.923-.923V152.016a.924.924,0,0,0-.923-.924Z" transform="translate(-1269.579 -149.152)" fill="#222"/>
      </g>
    </g>
  </g>
</svg>
