<svg xmlns="http://www.w3.org/2000/svg" width="20.834" height="22.918" viewBox="0 0 20.834 22.918">
  <path id="Combined_Shape-15" data-name="Combined Shape-15" d="M1271.308,131.041a3.127,3.127,0,0,1-3.125-3.125V113.332a3.13,3.13,0,0,1,3.125-3.125h2.083v-1.042a1.042,1.042,0,1,1,2.083,0v1.042h6.25v-1.042a1.042,1.042,0,1,1,2.083,0v1.042h2.084a3.13,3.13,0,0,1,3.125,3.125v14.584a3.127,3.127,0,0,1-3.125,3.125Zm-1.042-3.125a1.041,1.041,0,0,0,1.042,1.042h14.584a1.041,1.041,0,0,0,1.042-1.042V118.54h-16.667Zm16.667-11.459v-3.125a1.044,1.044,0,0,0-1.042-1.042h-2.084v1.042a1.042,1.042,0,1,1-2.083,0V112.29h-6.25v1.042a1.042,1.042,0,1,1-2.083,0V112.29h-2.083a1.044,1.044,0,0,0-1.042,1.043v3.124Z" transform="translate(-1268.183 -108.123)" fill="#222"/>
</svg>
