<svg id="Settings_Menu_Item-5" data-name="Settings Menu Item-5" xmlns="http://www.w3.org/2000/svg" width="21.125" height="20.393" viewBox="0 0 21.125 20.393">
  <g id="Group-5" transform="translate(0 0)">
    <g id="Group_71" data-name="Group 71">
      <path id="Path_8" data-name="Path 8" d="M1269.579,168.085V152.229a3.076,3.076,0,0,1,3.075-3.077h14.973a3.076,3.076,0,0,1,3.075,3.077v11.426a3.075,3.075,0,0,1-3.075,3.075H1275.7a.986.986,0,0,0-.582.19l-3.226,2.345A1.458,1.458,0,0,1,1269.579,168.085Zm3.075-16.849a.993.993,0,0,0-.992.993v14.628l2.232-1.622a3.1,3.1,0,0,1,1.808-.589h11.924a.992.992,0,0,0,.992-.992V152.229a.993.993,0,0,0-.992-.993Z" transform="translate(-1269.579 -149.152)" fill="#222"/>
    </g>
  </g>
</svg>
