<svg id="Icon" xmlns="http://www.w3.org/2000/svg" xmlns:xlink="http://www.w3.org/1999/xlink" width="16" height="16" viewBox="0 0 16 16">
  <defs>
    <clipPath id="clip-path">
      <path id="Shape" d="M5.5.011H1.571S.537-.087.23.3a1.2,1.2,0,0,0,0,1.413l4.714,6a.674.674,0,0,0,1.111,0l4.714-6A1.2,1.2,0,0,0,10.77.3c-.307-.39-.556-.293-1.111-.293Z" transform="translate(0 0)" fill="#222"/>
    </clipPath>
  </defs>
  <g id="Group_59" data-name="Group 59" transform="translate(2.5 3.995)">
    <path id="Shape-2" data-name="Shape" d="M5.5.011H1.571S.537-.087.23.3a1.2,1.2,0,0,0,0,1.413l4.714,6a.674.674,0,0,0,1.111,0l4.714-6A1.2,1.2,0,0,0,10.77.3c-.307-.39-.556-.293-1.111-.293Z" transform="translate(0 0)" fill="#222"/>
    <g id="Mask_Group_59" data-name="Mask Group 59" clip-path="url(#clip-path)">
      <g id="Color_Black" data-name="Color / Black" transform="translate(-3.929 -7.984)">
        <rect id="Rectangle" width="18.857" height="23.984" fill="#222"/>
      </g>
    </g>
  </g>
</svg>
