<svg id="Group_681" data-name="Group 681" xmlns="http://www.w3.org/2000/svg" width="27.715" height="26.859" viewBox="0 0 27.715 26.859">
  <g id="Group_683" data-name="Group 683" transform="translate(0 0)">
    <path id="Path_80" data-name="Path 80" d="M30.322,30.86A2.324,2.324,0,0,1,28,28.539v-4a1.317,1.317,0,0,1,2.633,0V27.7a.532.532,0,0,0,.532.532h14.21a.532.532,0,0,0,.532-.532V7.165a.532.532,0,0,0-.532-.532H31.165a.532.532,0,0,0-.532.532V10.32a1.317,1.317,0,1,1-2.633,0v-4A2.324,2.324,0,0,1,30.322,4h15.9A2.324,2.324,0,0,1,48.54,6.322V28.539a2.324,2.324,0,0,1-2.322,2.322Z" transform="translate(-20.827 -4)" fill="#222"/>
    <path id="Path_81" data-name="Path 81" d="M18.53,45.06a1.307,1.307,0,0,1-.931-.385l-4.213-4.213a1.318,1.318,0,0,1,0-1.863L17.6,34.385a1.317,1.317,0,0,1,1.863,1.863L17.5,38.213H28.8a1.317,1.317,0,1,1,0,2.633H17.5l1.965,1.965a1.317,1.317,0,0,1-.931,2.248Z" transform="translate(-13 -26.1)" fill="#222"/>
  </g>
</svg>
