<svg id="Icon:" xmlns="http://www.w3.org/2000/svg" xmlns:xlink="http://www.w3.org/1999/xlink" width="25.783" height="25.783" viewBox="0 0 25.783 25.783">
  <defs>
    <clipPath id="clip-path">
      <path id="Combined_Shape" data-name="Combined Shape" d="M17.458,24.172H3.491A3.4,3.4,0,0,1,0,20.876V5.494A3.4,3.4,0,0,1,3.491,2.2H4.655A2.269,2.269,0,0,1,6.983,0h6.982a2.268,2.268,0,0,1,2.329,2.2h1.164a3.4,3.4,0,0,1,3.491,3.3V20.876A3.4,3.4,0,0,1,17.458,24.172ZM3.491,4.395a1.134,1.134,0,0,0-1.164,1.1V20.876a1.134,1.134,0,0,0,1.164,1.1H17.458a1.134,1.134,0,0,0,1.164-1.1V5.494a1.134,1.134,0,0,0-1.164-1.1H16.294a2.269,2.269,0,0,1-2.329,2.2H6.983a2.269,2.269,0,0,1-2.329-2.2ZM6.983,2.2v2.2h6.982V2.2Z" transform="translate(0)"/>
    </clipPath>
  </defs>
  <g id="Group_17" data-name="Group 17" transform="translate(2.417 0.806)">
    <path id="Combined_Shape-2" data-name="Combined Shape" d="M17.458,24.172H3.491A3.4,3.4,0,0,1,0,20.876V5.494A3.4,3.4,0,0,1,3.491,2.2H4.655A2.269,2.269,0,0,1,6.983,0h6.982a2.268,2.268,0,0,1,2.329,2.2h1.164a3.4,3.4,0,0,1,3.491,3.3V20.876A3.4,3.4,0,0,1,17.458,24.172ZM3.491,4.395a1.134,1.134,0,0,0-1.164,1.1V20.876a1.134,1.134,0,0,0,1.164,1.1H17.458a1.134,1.134,0,0,0,1.164-1.1V5.494a1.134,1.134,0,0,0-1.164-1.1H16.294a2.269,2.269,0,0,1-2.329,2.2H6.983a2.269,2.269,0,0,1-2.329-2.2ZM6.983,2.2v2.2h6.982V2.2Z" transform="translate(0 0)"/>
    <g id="Mask_Group_17" data-name="Mask Group 17" transform="translate(0 0)" clip-path="url(#clip-path)">
      <g id="COLOR_black" data-name="COLOR/ black" transform="translate(-3.492 -1.099)">
        <rect id="Rectangle" width="27.932" height="26.37" fill="#222"/>
      </g>
    </g>
  </g>
</svg>
