<svg id="Group_60" data-name="Group 60" xmlns="http://www.w3.org/2000/svg" xmlns:xlink="http://www.w3.org/1999/xlink" width="21.224" height="21.274" viewBox="0 0 21.224 21.274">
  <defs>
    <clipPath id="clip-path">
      <path id="Airplane_Icon" data-name="Airplane Icon" d="M4.519,17.7,5.6,20.609a.45.45,0,0,0,.706.1c1.1-1.078,1.235-1.125,1.173-1.436l-.514-2.542c-.039-.189-.259-.777-.092-.874,1.343-.789,4.35-3.171,5.2-3.85a.224.224,0,0,1,.344.085l3.947,9.047a.224.224,0,0,0,.363.069l1.025-1.028a1.847,1.847,0,0,0,.5-1.66L16.295,8.554a.456.456,0,0,1,.128-.41L19.38,5.18c.864-.844,2.5-3.711,1.564-4.672L20.831.394,20.717.28c-.958-.935-3.818.7-4.661,1.568L13.1,4.813a.452.452,0,0,1-.409.128L2.747,2.975a1.835,1.835,0,0,0-1.656.5L.065,4.508a.224.224,0,0,0,.069.363L9.158,8.827a.226.226,0,0,1,.085.345c-.677.85-3.053,3.865-3.841,5.211-.1.168-.682-.053-.871-.092l-2.536-.515c-.311-.062-.358.07-1.432,1.176a.453.453,0,0,0,.1.707l2.906,1.086c.04.022.071.045.107.067l.775.776C4.474,17.625,4.5,17.657,4.519,17.7Z" fill="#222"/>
    </clipPath>
  </defs>
  <path id="Airplane_Icon-2" data-name="Airplane Icon" d="M4.519,17.7,5.6,20.609a.45.45,0,0,0,.706.1c1.1-1.078,1.235-1.125,1.173-1.436l-.514-2.542c-.039-.189-.259-.777-.092-.874,1.343-.789,4.35-3.171,5.2-3.85a.224.224,0,0,1,.344.085l3.947,9.047a.224.224,0,0,0,.363.069l1.025-1.028a1.847,1.847,0,0,0,.5-1.66L16.295,8.554a.456.456,0,0,1,.128-.41L19.38,5.18c.864-.844,2.5-3.711,1.564-4.672L20.831.394,20.717.28c-.958-.935-3.818.7-4.661,1.568L13.1,4.813a.452.452,0,0,1-.409.128L2.747,2.975a1.835,1.835,0,0,0-1.656.5L.065,4.508a.224.224,0,0,0,.069.363L9.158,8.827a.226.226,0,0,1,.085.345c-.677.85-3.053,3.865-3.841,5.211-.1.168-.682-.053-.871-.092l-2.536-.515c-.311-.062-.358.07-1.432,1.176a.453.453,0,0,0,.1.707l2.906,1.086c.04.022.071.045.107.067l.775.776C4.474,17.625,4.5,17.657,4.519,17.7Z" transform="translate(0)" fill="#222"/>
  <g id="Mask_Group_66" data-name="Mask Group 66" transform="translate(0 0)" clip-path="url(#clip-path)">
    <g id="Color:" transform="translate(-3.032 -3.039)">
      <rect id="Rectangle" width="27.287" height="27.352" fill="#b2b2b2"/>
    </g>
  </g>
</svg>
