<svg id="Group_80" data-name="Group 80" xmlns="http://www.w3.org/2000/svg" xmlns:xlink="http://www.w3.org/1999/xlink" width="22.5" height="22.52" viewBox="0 0 22.5 22.52">
  <defs>
    <clipPath id="clip-path">
      <path id="Combined_Shape" data-name="Combined Shape" d="M20.579,22.189l-5.1-5.105a9.582,9.582,0,1,1,1.591-1.592l5.1,5.1a1.126,1.126,0,1,1-1.592,1.593ZM2.25,9.57a7.308,7.308,0,0,0,12.442,5.212l.038-.04.04-.038A7.314,7.314,0,1,0,2.25,9.57Z" fill="none"/>
    </clipPath>
  </defs>
  <g id="Group_78" data-name="Group 78">
    <path id="Combined_Shape-2" data-name="Combined Shape" d="M20.579,22.189l-5.1-5.105a9.582,9.582,0,1,1,1.591-1.592l5.1,5.1a1.126,1.126,0,1,1-1.592,1.593ZM2.25,9.57a7.308,7.308,0,0,0,12.442,5.212l.038-.04.04-.038A7.314,7.314,0,1,0,2.25,9.57Z" fill="#fff"/>
  </g>
</svg>
