<svg xmlns="http://www.w3.org/2000/svg" xmlns:xlink="http://www.w3.org/1999/xlink" width="25.002" height="24.41" viewBox="0 0 25.002 24.41">
  <defs>
    <clipPath id="clip-path">
      <path id="Path_10" data-name="Path 10" d="M1272.808,247.249a3.127,3.127,0,0,1-3.125-3.125v-12.5a3.128,3.128,0,0,1,3.125-3.125h18.751a3.129,3.129,0,0,1,3.125,3.125v12.5a3.129,3.129,0,0,1-3.125,3.125Zm-1.042-3.125a1.041,1.041,0,0,0,1.042,1.042h18.751a1.041,1.041,0,0,0,1.042-1.042v-7.292h-20.834Zm20.834-9.375v-3.125a1.042,1.042,0,0,0-1.042-1.042h-18.751a1.042,1.042,0,0,0-1.042,1.042v3.125Z" transform="translate(-1269.683 -228.498)" fill="none"/>
    </clipPath>
  </defs>
  <g id="Settings_Menu_Item-7" data-name="Settings Menu Item-7" transform="translate(0 1.012)">
    <g id="Group-7" transform="translate(0 4.648)">
      <g id="Icon:-7" transform="translate(0 0)">
        <g id="Group_15" data-name="Group 15">
          <path id="Combined_Shape-14" data-name="Combined Shape-14" d="M1272.808,247.249a3.127,3.127,0,0,1-3.125-3.125v-12.5a3.128,3.128,0,0,1,3.125-3.125h18.751a3.129,3.129,0,0,1,3.125,3.125v12.5a3.129,3.129,0,0,1-3.125,3.125Zm-1.042-3.125a1.041,1.041,0,0,0,1.042,1.042h18.751a1.041,1.041,0,0,0,1.042-1.042v-7.292h-20.834Zm20.834-9.375v-3.125a1.042,1.042,0,0,0-1.042-1.042h-18.751a1.042,1.042,0,0,0-1.042,1.042v3.125Z" transform="translate(-1269.683 -228.498)"/>
          <g id="Group_75" data-name="Group 75">
            <g id="Group_74" data-name="Group 74" clip-path="url(#clip-path)">
              <g id="Mask_Group_15" data-name="Mask Group 15" transform="translate(-0.042 -3.078)">
                <g id="COLOR_black-6" data-name="COLOR black-6" transform="translate(0 0)">
                  <rect id="Rectangle-7" width="25" height="25" transform="translate(-0.145 -0.093)" fill="#222"/>
                </g>
              </g>
            </g>
          </g>
        </g>
      </g>
    </g>
    <path id="Path_26" data-name="Path 26" d="M-24122.465-19256.842s-5.859-12.879-11.648,0" transform="translate(24139.9 19262.566)" fill="none" stroke="#222" stroke-width="2"/>
  </g>
</svg>
