<svg id="Settings_Menu_Item-10" data-name="Settings Menu Item-10" xmlns="http://www.w3.org/2000/svg" xmlns:xlink="http://www.w3.org/1999/xlink" width="18.752" height="20.834" viewBox="0 0 18.752 20.834">
  <defs>
    <clipPath id="clip-path">
      <path id="Path_1" data-name="Path 1" d="M1285.892,87.582a1.043,1.043,0,0,1-1.042-1.042V84.457a3.13,3.13,0,0,0-3.125-3.125h-8.334a3.13,3.13,0,0,0-3.125,3.125v2.083a1.042,1.042,0,0,1-2.083,0V84.457a5.216,5.216,0,0,1,5.209-5.209h8.334a5.216,5.216,0,0,1,5.208,5.209v2.083A1.043,1.043,0,0,1,1285.892,87.582Zm-8.334-10.417a5.209,5.209,0,1,1,5.208-5.209A5.209,5.209,0,0,1,1277.559,77.165Zm0-8.334a3.125,3.125,0,1,0,3.125,3.125A3.125,3.125,0,0,0,1277.559,68.831Z" transform="translate(-1268.183 -66.748)" fill="none"/>
    </clipPath>
  </defs>
  <g id="Group-10" transform="translate(0 0)">
    <g id="Icon:-10">
      <g id="Group_6" data-name="Group 6">
        <path id="Combined_Shape-16" data-name="Combined Shape-16" d="M1285.892,87.582a1.043,1.043,0,0,1-1.042-1.042V84.457a3.13,3.13,0,0,0-3.125-3.125h-8.334a3.13,3.13,0,0,0-3.125,3.125v2.083a1.042,1.042,0,0,1-2.083,0V84.457a5.216,5.216,0,0,1,5.209-5.209h8.334a5.216,5.216,0,0,1,5.208,5.209v2.083A1.043,1.043,0,0,1,1285.892,87.582Zm-8.334-10.417a5.209,5.209,0,1,1,5.208-5.209A5.209,5.209,0,0,1,1277.559,77.165Zm0-8.334a3.125,3.125,0,1,0,3.125,3.125A3.125,3.125,0,0,0,1277.559,68.831Z" transform="translate(-1268.183 -66.748)"/>
        <g id="Group_65" data-name="Group 65">
          <g id="Group_64" data-name="Group 64" clip-path="url(#clip-path)">
            <g id="Mask_Group_6" data-name="Mask Group 6" transform="translate(-3.125 -2.083)">
              <g id="COLOR_black-9" data-name="COLOR black-9">
                <rect id="Rectangle-10" width="25.001" height="25.001" fill="#222"/>
              </g>
            </g>
          </g>
        </g>
      </g>
    </g>
  </g>
</svg>
