<svg id="Settings_Menu_Item-5" data-name="Settings Menu Item-5" xmlns="http://www.w3.org/2000/svg" xmlns:xlink="http://www.w3.org/1999/xlink" width="25.002" height="20.834" viewBox="0 0 25.002 20.834">
  <defs>
    <clipPath id="clip-path">
      <path id="Path_9" data-name="Path 9" d="M1292.142,209.457a1.043,1.043,0,0,1-1.043-1.042v-2.083a3.125,3.125,0,0,0-2.345-3.024,1.042,1.042,0,1,1,.521-2.018h0a5.211,5.211,0,0,1,3.908,5.042v2.083A1.043,1.043,0,0,1,1292.142,209.457Zm-6.25,0a1.043,1.043,0,0,1-1.042-1.042v-2.083a3.13,3.13,0,0,0-3.125-3.125h-8.334a3.13,3.13,0,0,0-3.125,3.125v2.083a1.042,1.042,0,1,1-2.083,0v-2.083a5.216,5.216,0,0,1,5.209-5.209h8.334a5.216,5.216,0,0,1,5.208,5.209v2.083A1.043,1.043,0,0,1,1285.892,209.457Zm-8.334-10.417a5.209,5.209,0,1,1,5.208-5.209A5.209,5.209,0,0,1,1277.559,199.04Zm0-8.334a3.125,3.125,0,1,0,3.125,3.125A3.125,3.125,0,0,0,1277.559,190.706Zm7.292,8.209a1.042,1.042,0,0,1-.259-2.052,3.125,3.125,0,0,0,0-6.054,1.042,1.042,0,1,1,.489-2.025l.028.007a5.208,5.208,0,0,1,0,10.092A.956.956,0,0,1,1284.851,198.915Z" transform="translate(-1268.183 -188.623)" fill="none"/>
    </clipPath>
  </defs>
  <g id="Group-5" transform="translate(0 0)">
    <g id="Icon:-5">
      <g id="Group_11" data-name="Group 11">
        <path id="Combined_Shape-12" data-name="Combined Shape-12" d="M1292.142,209.457a1.043,1.043,0,0,1-1.043-1.042v-2.083a3.125,3.125,0,0,0-2.345-3.024,1.042,1.042,0,1,1,.521-2.018h0a5.211,5.211,0,0,1,3.908,5.042v2.083A1.043,1.043,0,0,1,1292.142,209.457Zm-6.25,0a1.043,1.043,0,0,1-1.042-1.042v-2.083a3.13,3.13,0,0,0-3.125-3.125h-8.334a3.13,3.13,0,0,0-3.125,3.125v2.083a1.042,1.042,0,1,1-2.083,0v-2.083a5.216,5.216,0,0,1,5.209-5.209h8.334a5.216,5.216,0,0,1,5.208,5.209v2.083A1.043,1.043,0,0,1,1285.892,209.457Zm-8.334-10.417a5.209,5.209,0,1,1,5.208-5.209A5.209,5.209,0,0,1,1277.559,199.04Zm0-8.334a3.125,3.125,0,1,0,3.125,3.125A3.125,3.125,0,0,0,1277.559,190.706Zm7.292,8.209a1.042,1.042,0,0,1-.259-2.052,3.125,3.125,0,0,0,0-6.054,1.042,1.042,0,1,1,.489-2.025l.028.007a5.208,5.208,0,0,1,0,10.092A.956.956,0,0,1,1284.851,198.915Z" transform="translate(-1268.183 -188.623)"/>
        <g id="Group_73" data-name="Group 73">
          <g id="Group_72" data-name="Group 72" clip-path="url(#clip-path)">
            <g id="Mask_Group_11" data-name="Mask Group 11" transform="translate(0 -2.083)">
              <g id="_Color" data-name=" Color">
                <rect id="Rectangle-5" width="25.001" height="25.001" fill="#222"/>
              </g>
            </g>
          </g>
        </g>
      </g>
    </g>
  </g>
</svg>
