<svg xmlns="http://www.w3.org/2000/svg" xmlns:xlink="http://www.w3.org/1999/xlink" width="15.533" height="15.931" viewBox="0 0 15.533 15.931">
  <defs>
    <clipPath id="clip-path">
      <path id="Path" d="M.845,4.39A7.915,7.915,0,0,1,7.925,0a7.593,7.593,0,0,1,5.3,2.071L10.989,4.266A4.38,4.38,0,0,0,7.925,3.08,4.793,4.793,0,0,0,3.408,6.39a5.177,5.177,0,0,0-.255,1.575,4.927,4.927,0,0,0,.264,1.575,4.773,4.773,0,0,0,4.508,3.31,4.673,4.673,0,0,0,2.747-.8,3.9,3.9,0,0,0,1.62-2.584H7.925V6.514h7.441a6.86,6.86,0,0,1,.167,1.629A7.809,7.809,0,0,1,13.173,14a7.531,7.531,0,0,1-5.248,1.929,7.915,7.915,0,0,1-7.08-4.39,7.985,7.985,0,0,1,0-7.151Z" transform="translate(8 8)" fill="#4285f4"/>
    </clipPath>
  </defs>
  <g id="Group_51" data-name="Group 51" transform="translate(-8 -8)">
    <path id="Path-2" data-name="Path" d="M.845,4.39A7.915,7.915,0,0,1,7.925,0a7.593,7.593,0,0,1,5.3,2.071L10.989,4.266A4.38,4.38,0,0,0,7.925,3.08,4.793,4.793,0,0,0,3.408,6.39a5.177,5.177,0,0,0-.255,1.575,4.927,4.927,0,0,0,.264,1.575,4.773,4.773,0,0,0,4.508,3.31,4.673,4.673,0,0,0,2.747-.8,3.9,3.9,0,0,0,1.62-2.584H7.925V6.514h7.441a6.86,6.86,0,0,1,.167,1.629A7.809,7.809,0,0,1,13.173,14a7.531,7.531,0,0,1-5.248,1.929,7.915,7.915,0,0,1-7.08-4.39,7.985,7.985,0,0,1,0-7.151Z" transform="translate(8 8)" fill="#4285f4"/>
    <g id="Mask_Group_57" data-name="Mask Group 57" clip-path="url(#clip-path)">
      <g id="Color:">
        <rect id="Rectangle" width="32" height="32" fill="#fff"/>
      </g>
    </g>
  </g>
</svg>
