<svg xmlns="http://www.w3.org/2000/svg" xmlns:xlink="http://www.w3.org/1999/xlink" width="17" height="16" viewBox="0 0 17 16">
  <defs>
    <clipPath id="clip-path">
      <path id="Combined_Shape" data-name="Combined Shape" d="M5.666,16s.049-10.119,0-11.166H9.38V6.415a3.686,3.686,0,0,1,3.346-1.844C15.169,4.571,17,6.168,17,9.6V16H13.288V10.026c0-1.5-.537-2.524-1.881-2.524A2.033,2.033,0,0,0,9.5,8.859a2.54,2.54,0,0,0-.122.905V16ZM0,16V5.714H3.4V16ZM1.67,3.429A1.634,1.634,0,0,1,0,1.714,1.642,1.642,0,0,1,1.71,0,1.638,1.638,0,0,1,3.4,1.714,1.644,1.644,0,0,1,1.69,3.429Z" transform="translate(8 8)" fill="#b2b2b2"/>
    </clipPath>
  </defs>
  <g id="Group_49" data-name="Group 49" transform="translate(-8 -8)">
    <path id="Combined_Shape-2" data-name="Combined Shape" d="M5.666,16s.049-10.119,0-11.166H9.38V6.415a3.686,3.686,0,0,1,3.346-1.844C15.169,4.571,17,6.168,17,9.6V16H13.288V10.026c0-1.5-.537-2.524-1.881-2.524A2.033,2.033,0,0,0,9.5,8.859a2.54,2.54,0,0,0-.122.905V16ZM0,16V5.714H3.4V16ZM1.67,3.429A1.634,1.634,0,0,1,0,1.714,1.642,1.642,0,0,1,1.71,0,1.638,1.638,0,0,1,3.4,1.714,1.644,1.644,0,0,1,1.69,3.429Z" transform="translate(8 8)" fill="#b2b2b2"/>
    <g id="Mask_Group_55" data-name="Mask Group 55" clip-path="url(#clip-path)">
      <g id="Color:">
        <rect id="Rectangle" width="32" height="32" fill="#fff"/>
      </g>
    </g>
  </g>
</svg>
