<?xml version="1.0" encoding="utf-8"?>
<!-- Generator: Adobe Illustrator 24.2.1, SVG Export Plug-In . SVG Version: 6.00 Build 0)  -->
<svg version="1.1" id="Group_69" xmlns="http://www.w3.org/2000/svg" xmlns:xlink="http://www.w3.org/1999/xlink" x="0px" y="0px"
	 viewBox="0 0 20 20" style="enable-background:new 0 0 20 20;" xml:space="preserve">
<style type="text/css">
	.st0{fill:#222222;}
</style>
<path id="Combined_Shape-15" class="st0" d="M42.27,24.53c-1.61,0-2.91-1.3-2.91-2.91V8.05c0-1.61,1.3-2.91,2.91-2.91h1.94V4.17
	c0.02-0.54,0.47-0.96,1-0.94c0.51,0.02,0.92,0.43,0.94,0.94v0.97h5.82V4.17c0.02-0.54,0.47-0.96,1-0.94
	c0.51,0.02,0.92,0.43,0.94,0.94v0.97h1.94c1.61,0,2.91,1.3,2.91,2.91v13.57c0,1.61-1.3,2.91-2.91,2.91H42.27z M41.3,21.62
	c0,0.54,0.43,0.97,0.97,0.97c0,0,0,0,0,0h13.57c0.54,0,0.97-0.43,0.97-0.97c0,0,0,0,0,0v-8.73H41.3L41.3,21.62z M56.81,10.95V8.05
	c0-0.54-0.43-0.97-0.97-0.97h-1.94v0.97c-0.02,0.54-0.47,0.96-1,0.94c-0.51-0.02-0.92-0.43-0.94-0.94V7.07h-5.82v0.97
	c-0.02,0.54-0.47,0.96-1,0.94c-0.51-0.02-0.92-0.43-0.94-0.94V7.07h-1.94c-0.54,0-0.97,0.44-0.97,0.97v2.91L56.81,10.95z"/>
<g>
	<path class="st0" d="M17,4c0.55,0,1,0.45,1,1v12c0,0.55-0.45,1-1,1H3c-0.55,0-1-0.45-1-1V5c0-0.55,0.45-1,1-1H17 M17,2H3
		C1.34,2,0,3.34,0,5v12c0,1.66,1.34,3,3,3h14c1.66,0,3-1.34,3-3V5C20,3.34,18.66,2,17,2L17,2z"/>
	<rect x="0.5" y="8" class="st0" width="19" height="2"/>
	<path class="st0" d="M7,6L7,6C6.45,6,6,5.55,6,5V1c0-0.55,0.45-1,1-1h0c0.55,0,1,0.45,1,1v4C8,5.55,7.55,6,7,6z"/>
	<path class="st0" d="M13,6L13,6c-0.55,0-1-0.45-1-1V1c0-0.55,0.45-1,1-1h0c0.55,0,1,0.45,1,1v4C14,5.55,13.55,6,13,6z"/>
</g>
</svg>
