<?xml version="1.0" encoding="utf-8"?>
<!-- Generator: Adobe Illustrator 24.2.1, SVG Export Plug-In . SVG Version: 6.00 Build 0)  -->
<svg version="1.1" id="Icon:" xmlns="http://www.w3.org/2000/svg" xmlns:xlink="http://www.w3.org/1999/xlink" x="0px" y="0px"
	 viewBox="0 0 20 20" style="enable-background:new 0 0 20 20;" xml:space="preserve">
<style type="text/css">
	.st0{fill:#FFFFFF;}
</style>
<path class="st0" d="M17,2h-1.28c0-1.1-0.9-2-2-2H6.28c-1.1,0-2,0.9-2,2H3C1.34,2,0,3.34,0,5v12c0,1.66,1.34,3,3,3h14
	c1.66,0,3-1.34,3-3V5C20,3.34,18.66,2,17,2z M6.28,2h7.44v2H6.28V2z M18,17c0,0.55-0.45,1-1,1H3c-0.55,0-1-0.45-1-1V5
	c0-0.55,0.45-1,1-1h1.28c0,1.1,0.9,2,2,2h7.44c1.1,0,2-0.9,2-2H17c0.55,0,1,0.45,1,1V17z"/>
</svg>
