<?xml version="1.0" encoding="utf-8"?>
<!-- Generator: Adobe Illustrator 24.2.1, SVG Export Plug-In . SVG Version: 6.00 Build 0)  -->
<svg version="1.1" id="Layer_1" xmlns="http://www.w3.org/2000/svg" xmlns:xlink="http://www.w3.org/1999/xlink" x="0px" y="0px"
	 viewBox="0 0 20 20" style="enable-background:new 0 0 20 20;" xml:space="preserve">
<style type="text/css">
	.st0{fill:#222222;}
	.st1{fill:none;stroke:#000000;stroke-width:2;stroke-linecap:round;stroke-miterlimit:10;}
	.st2{fill:#FFFFFF;}
	.st3{fill:none;stroke:#222222;stroke-width:2;stroke-linecap:round;stroke-miterlimit:10;}
	.st4{fill:#222222;stroke:#000000;stroke-width:2;stroke-linecap:round;stroke-miterlimit:10;}
</style>
<g>
	<g>
		<path class="st0" d="M41.12,47.98c-0.16,0-0.33-0.04-0.48-0.13c-0.49-0.26-0.66-0.87-0.39-1.36l5.28-9.51h7.02l4.41-7.35
			c0.28-0.47,0.9-0.63,1.37-0.34c0.47,0.28,0.63,0.9,0.34,1.37l-4.98,8.32h-6.98L42,47.47C41.81,47.79,41.47,47.98,41.12,47.98z"/>
	</g>
	<g>
		<g>
			<polygon class="st0" points="55.12,28.98 60.12,31.98 59.12,27.98 			"/>
		</g>
	</g>
</g>
<g>
	<g>
		<polyline class="st1" points="-53,46.76 -48,37.76 -41,37.76 -36.3,29.92 		"/>
		<g>
			<polygon points="-39,28.76 -34,31.76 -35,27.76 			"/>
		</g>
	</g>
</g>
<g>
	<g>
		<path class="st2" d="M1,20c-0.15,0-0.3-0.03-0.45-0.11c-0.49-0.25-0.69-0.85-0.45-1.34l3.72-7.43l9.45-1.99l3.04-7.59
			c0.21-0.51,0.79-0.76,1.3-0.56c0.51,0.21,0.76,0.79,0.56,1.3l-3.44,8.59l-9.55,2.01l-3.28,6.57C1.72,19.8,1.37,20,1,20z"/>
	</g>
	<g>
		<g>
			<polygon class="st2" points="18.74,6.37 17.04,2.4 13.07,4.11 14.03,1.7 18,0 19.7,3.97 			"/>
		</g>
	</g>
</g>
<g>
	<g>
		<polyline class="st3" points="32.02,19 35.52,12 45.02,10 48.25,1.91 		"/>
		<g>
			<polygon class="st0" points="49.76,6.37 48.06,2.4 44.09,4.11 45.05,1.7 49.02,0 50.72,3.97 			"/>
		</g>
	</g>
</g>
<path class="st4" d="M8,10"/>
</svg>
