<?xml version="1.0" encoding="utf-8"?>
<!-- Generator: Adobe Illustrator 24.2.1, SVG Export Plug-In . SVG Version: 6.00 Build 0)  -->
<svg version="1.1" id="Layer_1" xmlns="http://www.w3.org/2000/svg" xmlns:xlink="http://www.w3.org/1999/xlink" x="0px" y="0px"
	 viewBox="0 0 20 20" style="enable-background:new 0 0 20 20;" xml:space="preserve">
<style type="text/css">
	.st0{clip-path:url(#SVGID_2_);}
	.st1{fill:#222222;}
</style>
<g id="Icon:" transform="translate(0 15.203) rotate(-45)">
	<g id="Group_44">
		<path id="Combined_Shape-2" d="M-86.61-3.9c-4.28-4.12-4.41-10.92-0.29-15.2c4.12-4.28,10.92-4.41,15.2-0.29
			c0.1,0.1,0.2,0.19,0.29,0.29c4.28,4.12,4.41,10.92,0.29,15.2s-10.92,4.41-15.2,0.29C-86.42-3.7-86.52-3.8-86.61-3.9z M-87.81-11.5
			c0,4.86,3.94,8.8,8.8,8.8c4.86,0,8.8-3.94,8.8-8.8s-3.94-8.8-8.8-8.8C-83.86-20.29-87.8-16.36-87.81-11.5L-87.81-11.5z
			 M-79.99-7.59v-2.93h-2.93c-0.54,0-0.98-0.44-0.98-0.98c0-0.54,0.44-0.98,0.98-0.98h2.93v-2.93c0-0.54,0.44-0.98,0.98-0.98
			c0.54,0,0.98,0.44,0.98,0.98v2.93h2.93c0.54,0,0.98,0.44,0.98,0.98c0,0.54-0.44,0.98-0.98,0.98c0,0,0,0,0,0h-2.93v2.93
			c0,0.54-0.44,0.98-0.98,0.98C-79.55-6.61-79.99-7.05-79.99-7.59C-79.99-7.59-79.99-7.59-79.99-7.59L-79.99-7.59z"/>
		<g>
			<defs>
				<path id="SVGID_1_" d="M-86.61-3.9c-4.28-4.12-4.41-10.92-0.29-15.2c4.12-4.28,10.92-4.41,15.2-0.29c0.1,0.1,0.2,0.19,0.29,0.29
					c4.28,4.12,4.41,10.92,0.29,15.2s-10.92,4.41-15.2,0.29C-86.42-3.7-86.52-3.8-86.61-3.9z M-87.81-11.5c0,4.86,3.94,8.8,8.8,8.8
					c4.86,0,8.8-3.94,8.8-8.8s-3.94-8.8-8.8-8.8C-83.86-20.29-87.8-16.36-87.81-11.5L-87.81-11.5z M-79.99-7.59v-2.93h-2.93
					c-0.54,0-0.98-0.44-0.98-0.98c0-0.54,0.44-0.98,0.98-0.98h2.93v-2.93c0-0.54,0.44-0.98,0.98-0.98c0.54,0,0.98,0.44,0.98,0.98
					v2.93h2.93c0.54,0,0.98,0.44,0.98,0.98c0,0.54-0.44,0.98-0.98,0.98c0,0,0,0,0,0h-2.93v2.93c0,0.54-0.44,0.98-0.98,0.98
					C-79.55-6.61-79.99-7.05-79.99-7.59C-79.99-7.59-79.99-7.59-79.99-7.59L-79.99-7.59z"/>
			</defs>
			<clipPath id="SVGID_2_">
				<use xlink:href="#SVGID_1_"  style="overflow:visible;"/>
			</clipPath>
			<g id="Mask_Group_44" transform="translate(0 0)" class="st0">
				<g id="COLOR_black" transform="translate(-0.977 -0.977)">
					
						<rect id="Rectangle" x="-89.76" y="-22.25" transform="matrix(-1 2.535181e-06 -2.535181e-06 -1 -156.0662 -21.0407)" class="st1" width="23.45" height="23.45"/>
				</g>
			</g>
		</g>
	</g>
</g>
<g>
	<path class="st1" d="M10,2c4.41,0,8,3.59,8,8s-3.59,8-8,8s-8-3.59-8-8S5.59,2,10,2 M10,0C4.48,0,0,4.48,0,10s4.48,10,10,10
		s10-4.48,10-10S15.52,0,10,0L10,0z"/>
	<g>
		<path class="st1" d="M6.5,15c-0.38,0-0.77-0.15-1.06-0.44c-0.59-0.59-0.59-1.54,0-2.12l7-7c0.59-0.59,1.54-0.59,2.12,0
			s0.59,1.54,0,2.12l-7,7C7.27,14.85,6.88,15,6.5,15z"/>
	</g>
	<g>
		<path class="st1" d="M13.5,15c-0.38,0-0.77-0.15-1.06-0.44l-7-7c-0.59-0.59-0.59-1.54,0-2.12s1.54-0.59,2.12,0l7,7
			c0.59,0.59,0.59,1.54,0,2.12C14.27,14.85,13.88,15,13.5,15z"/>
	</g>
</g>
</svg>
