<?xml version="1.0" encoding="utf-8"?>
<!-- Generator: Adobe Illustrator 24.2.1, SVG Export Plug-In . SVG Version: 6.00 Build 0)  -->
<svg version="1.1" id="Layer_1" xmlns="http://www.w3.org/2000/svg" xmlns:xlink="http://www.w3.org/1999/xlink" x="0px" y="0px"
	 viewBox="0 0 20 20" style="enable-background:new 0 0 20 20;" xml:space="preserve">
<style type="text/css">
	.st0{fill:#222222;}
</style>
<g id="Settings_Menu_Item-5" transform="translate(0 0)">
	<g id="Group-5" transform="translate(0 0)">
		<g id="Group_71">
			<path id="Path_8" class="st0" d="M31.76,49.72V34.96c0-1.58,1.28-2.86,2.86-2.86l0,0h13.94c1.58,0,2.86,1.28,2.86,2.86
				c0,0,0,0,0,0V45.6c0,1.58-1.28,2.86-2.86,2.86l0,0h-11.1c-0.19,0-0.38,0.06-0.54,0.18l-3,2.18c-0.61,0.44-1.45,0.31-1.9-0.3
				C31.85,50.29,31.76,50.01,31.76,49.72z M34.62,34.04c-0.51,0-0.92,0.41-0.92,0.92v13.62l2.08-1.51c0.49-0.35,1.08-0.55,1.68-0.55
				h11.1c0.51,0,0.92-0.41,0.92-0.92V34.96c0-0.51-0.41-0.92-0.92-0.92L34.62,34.04z"/>
		</g>
	</g>
</g>
<path class="st0" d="M17,2c0.55,0,1,0.45,1,1v10c0,0.55-0.45,1-1,1H5.24C4.04,14,2.9,14.42,2,15.19V3c0-0.55,0.45-1,1-1H17 M17,0H3
	C1.34,0,0,1.34,0,3v17l3.12-3.12C3.68,16.32,4.45,16,5.24,16H17c1.66,0,3-1.34,3-3V3C20,1.34,18.66,0,17,0L17,0z"/>
</svg>
