<?xml version="1.0" encoding="utf-8"?>
<!-- Generator: Adobe Illustrator 24.2.1, SVG Export Plug-In . SVG Version: 6.00 Build 0)  -->
<svg version="1.1" id="Group-5" xmlns="http://www.w3.org/2000/svg" xmlns:xlink="http://www.w3.org/1999/xlink" x="0px" y="0px"
	 viewBox="0 0 20 20" style="enable-background:new 0 0 20 20;" xml:space="preserve">
<style type="text/css">
	.st0{clip-path:url(#SVGID_2_);}
	.st1{fill:#222222;}
	.st2{fill:none;stroke:#707070;stroke-width:2;stroke-linecap:round;}
	.st3{fill:#FFFFFF;}
	.st4{fill:none;stroke:#000000;stroke-width:2;stroke-linecap:round;stroke-miterlimit:10;}
</style>
<g id="Icon:-5">
	<g id="Group_11">
		<path id="Combined_Shape-12" d="M70.43,32.06c-0.54,0-0.97-0.43-0.97-0.97v-1.94c0-1.33-0.9-2.48-2.18-2.82
			c-0.52-0.13-0.83-0.66-0.7-1.18s0.66-0.83,1.18-0.7l0,0c2.14,0.55,3.64,2.48,3.64,4.69v1.94C71.4,31.63,70.97,32.06,70.43,32.06z
			 M64.61,32.06c-0.54,0-0.97-0.43-0.97-0.97v-1.94c0-1.61-1.3-2.91-2.91-2.91h-7.76c-1.61,0-2.91,1.3-2.91,2.91v1.94
			c0.02,0.54-0.4,0.98-0.94,1c-0.54,0.02-0.98-0.4-1-0.94c0-0.02,0-0.04,0-0.06v-1.94c0-2.68,2.17-4.84,4.85-4.85h7.76
			c2.68,0,4.84,2.17,4.85,4.85v1.94C65.58,31.63,65.15,32.06,64.61,32.06z M56.86,22.36c-2.68,0-4.85-2.17-4.85-4.85
			s2.17-4.85,4.85-4.85s4.85,2.17,4.85,4.85C61.71,20.19,59.54,22.36,56.86,22.36C56.86,22.36,56.86,22.36,56.86,22.36L56.86,22.36z
			 M56.86,14.6c-1.61,0-2.91,1.3-2.91,2.91s1.3,2.91,2.91,2.91c1.61,0,2.91-1.3,2.91-2.91C59.76,15.91,58.46,14.61,56.86,14.6
			L56.86,14.6z M63.64,22.24c-0.54,0-0.97-0.43-0.97-0.97c0-0.44,0.3-0.83,0.73-0.94c1.56-0.4,2.49-1.98,2.1-3.54
			c-0.26-1.03-1.07-1.83-2.1-2.1c-0.52-0.11-0.86-0.62-0.75-1.15s0.62-0.86,1.15-0.75c0.02,0,0.04,0.01,0.06,0.01l0.03,0.01
			c2.59,0.66,4.16,3.3,3.5,5.9c-0.44,1.72-1.78,3.06-3.5,3.5C63.81,22.23,63.73,22.24,63.64,22.24L63.64,22.24z"/>
		<g id="Group_73">
			<g>
				<defs>
					<path id="SVGID_1_" d="M64.61,32.06c-0.54,0-0.97-0.43-0.97-0.97v-1.94c0-1.61-1.3-2.91-2.91-2.91h-7.76
						c-1.61,0-2.91,1.3-2.91,2.91v1.94c0.02,0.54-0.4,0.98-0.94,1c-0.54,0.02-0.98-0.4-1-0.94c0-0.02,0-0.04,0-0.06v-1.94
						c0-2.68,2.17-4.84,4.85-4.85h7.76c2.68,0,4.84,2.17,4.85,4.85v1.94C65.58,31.63,65.15,32.06,64.61,32.06z M56.86,22.36
						c-2.68,0-4.85-2.17-4.85-4.85s2.17-4.85,4.85-4.85s4.85,2.17,4.85,4.85C61.71,20.19,59.54,22.36,56.86,22.36
						C56.86,22.36,56.86,22.36,56.86,22.36L56.86,22.36z M56.86,14.6c-1.61,0-2.91,1.3-2.91,2.91s1.3,2.91,2.91,2.91
						c1.61,0,2.91-1.3,2.91-2.91C59.76,15.91,58.46,14.61,56.86,14.6L56.86,14.6z M63.86,12.81C66.48,13.49,63.34,12.69,63.86,12.81
						L63.86,12.81z"/>
				</defs>
				<clipPath id="SVGID_2_">
					<use xlink:href="#SVGID_1_"  style="overflow:visible;"/>
				</clipPath>
				<g id="Group_72" class="st0">
					<g id="Mask_Group_11" transform="translate(0 -1.939)">
						<g id="_Color">
							<rect id="Rectangle-5" x="48.13" y="12.67" class="st1" width="23.27" height="23.27"/>
						</g>
					</g>
					<path id="Path_73" class="st2" d="M69.04,13.57l-5.51,10.41"/>
				</g>
			</g>
		</g>
	</g>
</g>
<g>
	<g>
		<path class="st3" d="M13,20c-0.55,0-1-0.45-1-1v-4c0-1.1-0.71-2-1.57-2H3.57C2.71,13,2,13.9,2,15v4c0,0.55-0.45,1-1,1s-1-0.45-1-1
			v-4c0-2.21,1.6-4,3.57-4h6.86C12.4,11,14,12.79,14,15v4C14,19.55,13.55,20,13,20z"/>
	</g>
	<g>
		<path class="st3" d="M7,10c-2.76,0-5-2.24-5-5s2.24-5,5-5s5,2.24,5,5S9.76,10,7,10z M7,2C5.35,2,4,3.35,4,5s1.35,3,3,3s3-1.35,3-3
			S8.65,2,7,2z"/>
	</g>
	<g>
		<path class="st3" d="M19,20c-0.55,0-1-0.45-1-1v-4c0-1.1-0.8-2-1.79-2c-0.55,0-1-0.45-1-1s0.45-1,1-1C18.3,11,20,12.79,20,15v4
			C20,19.55,19.55,20,19,20z"/>
	</g>
	<g>
		<path class="st3" d="M13,10c-0.55,0-1-0.45-1-1s0.45-1,1-1c1.65,0,3-1.35,3-3s-1.35-3-3-3c-0.55,0-1-0.45-1-1s0.45-1,1-1
			c2.76,0,5,2.24,5,5S15.76,10,13,10z"/>
	</g>
</g>
<path class="st4" d="M-25.47,19v-4c0-1.66,1.15-3,2.57-3h6.86c1.42,0,2.57,1.34,2.57,3v4"/>
<circle class="st4" cx="-19.47" cy="5" r="4"/>
<g>
	<path class="st4" d="M-10.26,12c1.54,0,2.79,1.34,2.79,3v4"/>
	<path class="st4" d="M-13.47,1c2.21,0,4,1.79,4,4s-1.79,4-4,4"/>
</g>
</svg>
