<?xml version="1.0" encoding="utf-8"?>
<!-- Generator: Adobe Illustrator 24.2.1, SVG Export Plug-In . SVG Version: 6.00 Build 0)  -->
<svg version="1.1" id="Layer_1" xmlns="http://www.w3.org/2000/svg" xmlns:xlink="http://www.w3.org/1999/xlink" x="0px" y="0px"
	 viewBox="0 0 20 20" style="enable-background:new 0 0 20 20;" xml:space="preserve">
<style type="text/css">
	.st0{fill:#222222;}
</style>
<g id="Group_80" transform="translate(24302.668 19524)">
	<g id="Group_78" transform="translate(-24302.668 -19524)">
		<path id="Combined_Shape-2" class="st0" d="M18.29,19.71l-4.53-4.53c-3.69,2.91-9.03,2.28-11.94-1.41S-0.45,4.74,3.24,1.83
			s9.03-2.28,11.94,1.41c2.44,3.09,2.44,7.44,0,10.53l4.53,4.53c0.39,0.39,0.39,1.02,0,1.41S18.68,20.1,18.29,19.71L18.29,19.71
			L18.29,19.71z M2.03,8.51C2.02,12.09,4.92,15,8.5,15.01c1.71,0,3.36-0.67,4.57-1.87l0.03-0.04l0.04-0.03
			c2.52-2.55,2.49-6.66-0.06-9.18S6.42,1.4,3.9,3.95C2.7,5.17,2.03,6.81,2.03,8.51z"/>
	</g>
</g>
</svg>
