<?xml version="1.0" encoding="utf-8"?>
<!-- Generator: Adobe Illustrator 24.2.1, SVG Export Plug-In . SVG Version: 6.00 Build 0)  -->
<svg version="1.1" id="Layer_1" xmlns="http://www.w3.org/2000/svg" xmlns:xlink="http://www.w3.org/1999/xlink" x="0px" y="0px"
	 viewBox="0 0 40 40" style="enable-background:new 0 0 40 40;" xml:space="preserve">
<style type="text/css">
	.st0{fill:#F2F2F2;}
	.st1{fill:#222222;}
</style>
<rect y="0" class="st0" width="40" height="40"/>
<g id="Group_80" transform="translate(24302.668 19524)">
	<g id="Group_78" transform="translate(-24302.668 -19524)">
		<path id="Combined_Shape-2" class="st1" d="M77.37,38.14l-4.53-4.53c-3.69,2.91-9.03,2.28-11.94-1.41s-2.28-9.03,1.41-11.94
			s9.03-2.28,11.94,1.41c2.44,3.09,2.44,7.44,0,10.53l4.53,4.53c0.39,0.39,0.39,1.02,0,1.41C78.4,38.53,77.76,38.53,77.37,38.14
			L77.37,38.14L77.37,38.14z M61.11,26.94c-0.01,3.58,2.89,6.49,6.47,6.5c1.71,0,3.36-0.67,4.57-1.87l0.03-0.04l0.04-0.03
			c2.52-2.55,2.49-6.66-0.06-9.18c-2.55-2.52-6.66-2.49-9.18,0.06C61.78,23.6,61.11,25.24,61.11,26.94z"/>
	</g>
</g>
<path class="st1" d="M20,22c10.61,0,18,4.48,18,8.5V40H2v-9.5C2,26.48,9.39,22,20,22 M20,20C8.95,20,0,24.7,0,30.5S0,40,0,40h40
	c0,0,0-6.96,0-9.5C40,24.7,31.05,20,20,20L20,20z"/>
<path class="st1" d="M20,4c3.86,0,7,3.14,7,7s-3.14,7-7,7s-7-3.14-7-7S16.14,4,20,4 M20,2c-4.97,0-9,4.03-9,9s4.03,9,9,9s9-4.03,9-9
	S24.97,2,20,2L20,2z"/>
</svg>
