<?xml version="1.0" encoding="utf-8"?>
<!-- Generator: Adobe Illustrator 24.2.1, SVG Export Plug-In . SVG Version: 6.00 Build 0)  -->
<svg version="1.1" id="Layer_1" xmlns="http://www.w3.org/2000/svg" xmlns:xlink="http://www.w3.org/1999/xlink" x="0px" y="0px"
	 viewBox="0 0 20 20" style="enable-background:new 0 0 20 20;" xml:space="preserve">
<style type="text/css">
	.st0{fill:#222222;}
</style>
<g>
	<g>
		<path class="st0" d="M39,19h-5v5h5V19L39,19z"/>
	</g>
	<rect x="41" y="19" class="st0" width="13" height="2"/>
	<rect x="41" y="22" class="st0" width="9" height="2"/>
</g>
<g>
	<g>
		<path class="st0" d="M39,26.5h-5v5h5V26.5L39,26.5z"/>
	</g>
	<rect x="41" y="26.5" class="st0" width="13" height="2"/>
	<rect x="41" y="29.5" class="st0" width="9" height="2"/>
</g>
<g>
	<g>
		<path class="st0" d="M39,34h-5v5h5V34L39,34z"/>
	</g>
	<rect x="41" y="34" class="st0" width="13" height="2"/>
	<rect x="41" y="37" class="st0" width="9" height="2"/>
</g>
<g>
	<path class="st0" d="M3,2v1H2V2H3 M5,0H0v5h5V0L5,0z"/>
</g>
<g>
	<path class="st0" d="M10.5,9.5v1h-1v-1H10.5 M12.5,7.5h-5v5h5V7.5L12.5,7.5z"/>
</g>
<g>
	<path class="st0" d="M18,17v1h-1v-1H18 M20,15h-5v5h5V15L20,15z"/>
</g>
<g>
	<path class="st0" d="M10.5,17v1h-1v-1H10.5 M12.5,15h-5v5h5V15L12.5,15z"/>
</g>
<g>
	<path class="st0" d="M3,9.5v1H2v-1H3 M5,7.5H0v5h5V7.5L5,7.5z"/>
</g>
<g>
	<path class="st0" d="M3,17v1H2v-1H3 M5,15H0v5h5V15L5,15z"/>
</g>
<g>
	<path class="st0" d="M10.5,2v1h-1V2H10.5 M12.5,0h-5v5h5V0L12.5,0z"/>
</g>
<g>
	<path class="st0" d="M18,2v1h-1V2H18 M20,0h-5v5h5V0L20,0z"/>
</g>
<g>
	<path class="st0" d="M18,9.5v1h-1v-1H18 M20,7.5h-5v5h5V7.5L20,7.5z"/>
</g>
</svg>
